<?xml version="1.0" standalone="no"?>
<!DOCTYPE svg PUBLIC "-//W3C//DTD SVG 20010904//EN"
 "http://www.w3.org/TR/2001/REC-SVG-20010904/DTD/svg10.dtd">
<svg version="1.0" xmlns="http://www.w3.org/2000/svg"
 width="512.000000pt" height="512.000000pt" viewBox="0 0 512.000000 512.000000"
 preserveAspectRatio="xMidYMid meet">

<g transform="translate(0.000000,512.000000) scale(0.100000,-0.100000)"
fill="#e6e7e7" stroke="none">
<path d="M2465 4933 c-615 -25 -1192 -287 -1621 -735 -338 -355 -555 -800
-630 -1293 -25 -166 -26 -513 -1 -675 81 -526 305 -970 677 -1340 385 -385
857 -613 1403 -680 127 -15 432 -13 562 4 333 45 641 151 915 316 617 371
1024 980 1137 1700 13 85 18 173 18 335 0 304 -28 476 -122 759 -197 593 -659
1113 -1228 1381 -342 162 -738 243 -1110 228z m357 -338 c598 -79 1123 -408
1450 -910 166 -253 268 -521 314 -826 24 -153 24 -434 1 -584 -66 -428 -254
-808 -558 -1128 l-74 -79 -43 100 c-199 462 -551 748 -1033 838 -137 26 -495
26 -634 0 -304 -56 -538 -178 -738 -385 -134 -139 -244 -314 -333 -530 -10
-23 -13 -20 -93 65 -471 502 -659 1155 -525 1821 33 168 83 312 164 478 115
236 230 394 421 580 210 204 405 330 679 438 132 52 323 102 466 121 136 19
398 19 536 1z"/>
<path d="M2390 3935 c-388 -87 -657 -405 -677 -800 -16 -343 176 -662 488
-810 124 -58 215 -78 364 -77 150 0 242 20 364 77 186 89 322 227 411 418 61
132 75 201 74 362 -1 121 -4 152 -28 228 -38 128 -86 216 -175 325 -88 107
-279 227 -426 267 -85 23 -310 29 -395 10z"/>
</g>
</svg>
