<?xml version="1.0" encoding="UTF-8" standalone="no"?>
<svg
   xmlns:dc="http://purl.org/dc/elements/1.1/"
   xmlns:cc="http://creativecommons.org/ns#"
   xmlns:rdf="http://www.w3.org/1999/02/22-rdf-syntax-ns#"
   xmlns:svg="http://www.w3.org/2000/svg"
   xmlns="http://www.w3.org/2000/svg"
   xmlns:sodipodi="http://sodipodi.sourceforge.net/DTD/sodipodi-0.dtd"
   xmlns:inkscape="http://www.inkscape.org/namespaces/inkscape"
   id="svg"
   version="1.1"
   width="400"
   height="400"
   viewBox="0, 0, 400,400"
   sodipodi:docname="logo_2_pl.svg"
   inkscape:version="1.0.2-2 (e86c870879, 2021-01-15)">
  <metadata
     id="metadata13">
    <rdf:RDF>
      <cc:Work
         rdf:about="">
        <dc:format>image/svg+xml</dc:format>
        <dc:type
           rdf:resource="http://purl.org/dc/dcmitype/StillImage" />
        <dc:title />
      </cc:Work>
    </rdf:RDF>
  </metadata>
  <defs
     id="defs11" />
  <sodipodi:namedview
     pagecolor="#ffffff"
     bordercolor="#666666"
     borderopacity="1"
     objecttolerance="10"
     gridtolerance="10"
     guidetolerance="10"
     inkscape:pageopacity="0"
     inkscape:pageshadow="2"
     inkscape:window-width="1920"
     inkscape:window-height="1017"
     id="namedview9"
     showgrid="false"
     inkscape:zoom="2.125"
     inkscape:cx="108.94118"
     inkscape:cy="218.82353"
     inkscape:window-x="1912"
     inkscape:window-y="-8"
     inkscape:window-maximized="1"
     inkscape:current-layer="svg"
     inkscape:document-rotation="0" />
  <g
     id="svgg"
     transform="matrix(1.15,0,0,1.15,-30.375,-29.625)">
    <path
       id="path0"
       d="m 268.054,183.604 c -4.39,0.931 -8.269,4.072 -10.366,8.396 -1.683,3.469 -1.637,13.099 0.079,16.541 1.185,2.377 5.197,6.259 6.47,6.259 0.327,0 1.301,0.36 2.163,0.8 2.399,1.224 13.353,1.209 14.01,-0.018 0.88,-1.645 0.344,-3.393 -1.01,-3.293 -10.554,0.785 -15.061,-1.304 -16.912,-7.839 -1.272,-4.492 -1.272,-4.515 0.031,-9.099 1.794,-6.316 9.864,-10.548 15.245,-7.995 2.441,1.158 4.195,-0.994 2.689,-3.301 -0.44,-0.674 -9.748,-1.013 -12.399,-0.451 m -198.587,0.263 c -0.431,0.43 -0.313,30.359 0.123,31.507 0.404,1.063 1.517,1.308 3.51,0.774 l 0.9,-0.241 0.03,-10.654 C 74.064,192.84 74.241,191 75.4,191 c 0.592,0 0.958,0.468 1.405,1.8 0.333,0.99 0.779,2.07 0.991,2.4 0.599,0.933 2.604,7.204 2.606,8.152 0.002,0.466 0.291,1.388 0.642,2.048 0.965,1.812 2.187,5.379 2.533,7.4 0.552,3.216 1.068,3.6 4.842,3.6 1.405,0 1.554,-0.113 1.99,-1.5 0.259,-0.825 0.813,-2.232 1.231,-3.126 0.418,-0.895 0.76,-1.89 0.76,-2.211 0,-0.322 0.242,-0.94 0.538,-1.374 0.296,-0.434 0.763,-1.952 1.037,-3.374 0.274,-1.422 0.752,-2.947 1.062,-3.389 0.31,-0.442 0.564,-1.259 0.564,-1.815 0.001,-0.556 0.359,-1.597 0.796,-2.314 0.437,-0.716 0.901,-2.066 1.031,-3 0.357,-2.556 0.991,-3.975 1.662,-3.718 0.316,0.122 0.712,0.221 0.879,0.221 0.991,0 1.231,2.542 1.231,13.045 0,13.086 0.143,13.546 3.774,12.165 L 106,215.62 V 199.61 183.6 l -4.7,0.003 -4.7,0.003 -0.906,1.587 c -0.499,0.873 -1.019,2.447 -1.157,3.497 -0.137,1.051 -0.489,2.387 -0.782,2.969 -0.293,0.583 -0.728,1.93 -0.967,2.994 -0.238,1.064 -0.669,2.207 -0.957,2.541 -0.288,0.333 -0.638,1.488 -0.778,2.566 -0.14,1.078 -0.527,2.507 -0.861,3.176 -0.334,0.669 -0.716,1.899 -0.849,2.733 -0.477,2.979 -4.121,1.782 -4.152,-1.363 -0.005,-0.498 -0.352,-1.664 -0.773,-2.589 -0.42,-0.926 -0.885,-2.546 -1.034,-3.6 -0.148,-1.055 -0.584,-2.467 -0.968,-3.14 -0.384,-0.672 -0.828,-1.914 -0.986,-2.758 -0.159,-0.845 -0.534,-1.915 -0.835,-2.377 -0.301,-0.463 -0.672,-1.832 -0.824,-3.042 -0.153,-1.21 -0.456,-2.425 -0.673,-2.7 -0.422,-0.533 -9.121,-0.744 -9.631,-0.233 m 44.407,-0.008 c -0.476,0.476 -0.321,29.887 0.165,31.281 l 0.439,1.26 h 8.146 c 8.448,0 9.776,-0.285 9.776,-2.102 0,-1.647 -0.729,-1.898 -5.517,-1.898 -7.83,0 -8.068,-0.167 -8.077,-5.656 -0.009,-5.688 0.047,-5.735 6.859,-5.777 L 131,200.934 v -1.711 -1.712 l -5.2,0.063 c -6.781,0.081 -6.753,0.1 -6.941,-4.765 -0.201,-5.229 -0.227,-5.209 6.735,-5.209 6.001,0 6.699,-0.312 6.342,-2.84 l -0.136,-0.96 -8.826,-0.107 c -4.854,-0.06 -8.949,0.015 -9.1,0.166 m 25.026,0.006 c -0.626,0.253 -0.641,1.388 -0.036,2.716 0.449,0.984 0.59,1.019 4.138,1.019 5.348,0 4.944,-1.172 5.082,14.729 0.128,14.717 -0.003,14.053 2.777,14.065 2.235,0.009 2.339,-0.66 2.339,-15.031 0,-14.92 -0.475,-13.763 5.646,-13.763 4.26,0 4.354,-0.057 4.354,-2.633 V 183.6 l -11.9,0.032 c -6.545,0.017 -12.125,0.122 -12.4,0.233 m 35.674,0.419 c -0.118,0.394 -0.565,1.382 -0.994,2.195 -0.429,0.814 -0.78,1.825 -0.78,2.246 0,0.422 -0.337,1.196 -0.748,1.721 -0.411,0.525 -0.882,1.584 -1.045,2.354 -0.334,1.569 -1.417,4.257 -2.612,6.479 -0.437,0.814 -0.795,1.882 -0.795,2.374 0,0.492 -0.34,1.626 -0.755,2.521 -2.196,4.727 -2.781,6.151 -3.051,7.426 -0.163,0.77 -0.543,1.755 -0.845,2.189 -1.199,1.724 -0.737,2.612 1.351,2.598 2.219,-0.014 3.856,-1.177 4.269,-3.03 0.142,-0.636 0.792,-2.012 1.445,-3.057 l 1.187,-1.9 h 6.5 c 7.62,0.001 8.226,0.261 9.337,4.003 0.934,3.146 1.975,4.075 4.396,3.922 2.462,-0.156 2.734,-1.173 1.19,-4.438 -0.563,-1.19 -1.024,-2.512 -1.024,-2.937 0,-0.424 -0.244,-1.127 -0.543,-1.561 -0.299,-0.434 -0.772,-1.509 -1.051,-2.389 -0.279,-0.88 -0.739,-1.87 -1.023,-2.2 -0.283,-0.33 -0.646,-1.32 -0.805,-2.2 -0.159,-0.88 -0.6,-2.23 -0.981,-3 -1.608,-3.252 -2.357,-5.083 -2.619,-6.4 -0.153,-0.77 -0.641,-2.12 -1.085,-3 -0.444,-0.88 -1.122,-2.23 -1.507,-3 l -0.701,-1.4 -3.249,-0.116 c -2.835,-0.102 -3.276,-0.025 -3.462,0.6 m 25.926,-0.44 c -0.837,0.373 -0.714,31.085 0.129,31.927 0.805,0.806 2.936,0.809 4.082,0.006 0.843,-0.59 0.889,-0.897 0.889,-5.971 0,-6.715 0.033,-6.756 5.828,-7.137 4.883,-0.321 8.972,-2.591 8.972,-4.982 0,-0.214 0.27,-0.613 0.6,-0.887 1.767,-1.466 0.349,-8.293 -2.203,-10.602 -2.052,-1.858 -15.517,-3.59 -18.297,-2.354 m 33.682,0.738 c -0.62,0.62 -0.982,1.438 -0.982,2.221 0,0.681 -0.347,1.904 -0.772,2.718 -1.169,2.24 -2.828,6.308 -2.828,6.935 0,0.306 -0.332,1.183 -0.739,1.95 -0.406,0.767 -0.87,1.934 -1.031,2.594 -0.161,0.66 -0.526,1.47 -0.81,1.8 -0.285,0.33 -0.644,1.299 -0.798,2.154 -0.153,0.855 -0.626,2.202 -1.05,2.994 -0.425,0.792 -0.772,1.651 -0.772,1.909 0,0.258 -0.458,1.352 -1.018,2.432 -1.439,2.772 -0.947,4.111 1.508,4.111 2.102,0 3.652,-1.664 4.318,-4.635 0.733,-3.273 1.08,-3.4 8.963,-3.274 l 6.827,0.109 1.098,2 c 0.604,1.1 1.214,2.689 1.357,3.531 0.304,1.797 1.172,2.269 4.173,2.269 h 1.974 v -1.551 c 0,-0.891 -0.255,-1.763 -0.6,-2.049 -0.33,-0.274 -0.6,-0.809 -0.6,-1.189 0,-0.381 -0.45,-1.538 -1,-2.573 -0.55,-1.034 -1,-2.321 -1,-2.859 0,-0.538 -0.483,-1.924 -1.074,-3.079 -1.794,-3.507 -2.022,-4.046 -2.33,-5.5 -0.163,-0.77 -0.61,-2.03 -0.994,-2.8 -1.729,-3.472 -2.382,-5.112 -2.626,-6.6 -0.145,-0.88 -0.718,-2.275 -1.274,-3.1 l -1.011,-1.5 h -2.964 c -2.613,0 -3.079,0.116 -3.945,0.982 m 54.061,-0.349 c -0.412,1.073 -0.275,30.031 0.147,31.141 0.338,0.89 0.627,1.026 2.176,1.026 2.364,0 2.381,-0.049 2.28,-6.632 -0.068,-4.37 0.055,-6.035 0.526,-7.163 l 0.614,-1.469 1.307,0.913 c 0.719,0.502 1.427,1.101 1.573,1.332 0.62,0.975 2.26,3.22 4.047,5.537 6.002,7.784 5.645,7.482 8.834,7.482 2.883,0 3.738,-1.249 1.953,-2.85 -0.385,-0.346 -1.15,-1.195 -1.7,-1.888 -0.55,-0.693 -1.413,-1.755 -1.917,-2.361 -0.505,-0.605 -1.315,-1.623 -1.8,-2.262 -0.486,-0.638 -1.276,-1.579 -1.756,-2.091 -0.48,-0.511 -1.379,-1.609 -1.997,-2.439 -0.619,-0.83 -1.351,-1.653 -1.628,-1.829 -0.681,-0.434 -0.636,-2.664 0.07,-3.446 0.315,-0.349 0.994,-1.097 1.51,-1.662 0.516,-0.566 2.374,-2.721 4.128,-4.788 1.755,-2.068 3.775,-4.356 4.49,-5.085 1.843,-1.879 1.671,-2.099 -1.639,-2.099 h -2.94 l -1.96,2.194 c -1.079,1.207 -2.321,2.655 -2.761,3.219 -0.44,0.564 -1.745,2.119 -2.9,3.456 -1.155,1.338 -2.1,2.55 -2.1,2.695 0,0.327 -2.178,1.636 -2.723,1.636 -0.837,0 -1.277,-2.71 -1.277,-7.86 v -5.34 h -2.157 c -1.598,0 -2.22,0.164 -2.4,0.633 m -76.265,3.761 c 3.054,0.876 4.57,4.661 3.253,8.124 -0.887,2.334 -7.191,4.209 -9.027,2.686 -0.956,-0.794 -0.874,-9.911 0.096,-10.647 0.831,-0.631 3.754,-0.715 5.678,-0.163 m -31.705,5.406 c 0.529,1.54 1.128,3.562 1.331,4.494 0.203,0.932 0.658,2.134 1.01,2.672 0.961,1.466 0.633,3.534 -0.614,3.878 -1.542,0.426 -7.025,0.403 -8.174,-0.034 -1.046,-0.398 -1.504,-2.467 -0.661,-2.988 0.201,-0.125 0.489,-0.99 0.64,-1.924 0.151,-0.934 0.617,-2.486 1.035,-3.449 0.418,-0.963 0.76,-2.074 0.76,-2.469 0,-1.126 1.984,-3.24 2.909,-3.101 0.599,0.09 1.045,0.829 1.764,2.921 m 59.318,-2.216 c 0.231,0.431 0.533,1.646 0.672,2.7 0.138,1.054 0.676,2.725 1.194,3.713 0.519,0.988 0.943,2.102 0.943,2.476 0,0.374 0.18,0.791 0.4,0.927 1.164,0.719 0.418,2.962 -1.139,3.429 -2.148,0.643 -7.98,0.345 -8.472,-0.433 -0.63,-0.996 -0.435,-3.322 0.411,-4.9 0.44,-0.821 0.8,-1.754 0.8,-2.073 0,-0.32 0.45,-1.427 1,-2.461 0.55,-1.035 1,-2.274 1,-2.755 0,-1.622 2.405,-2.092 3.191,-0.623 m 95.376,34.914 c -0.458,0.276 -1.647,1.177 -2.641,2.002 -0.995,0.825 -1.937,1.5 -2.094,1.5 -0.157,0 -1.28,0.81 -2.496,1.8 -1.215,0.99 -2.418,1.801 -2.673,1.802 -0.255,0.002 -1.633,0.811 -3.063,1.798 -1.43,0.987 -2.88,1.796 -3.222,1.798 -0.343,0.001 -1.233,0.452 -1.978,1.002 -0.745,0.55 -1.531,1 -1.746,1 -0.215,0 -0.707,0.286 -1.094,0.636 -0.386,0.35 -1.437,0.801 -2.334,1.003 -0.897,0.201 -1.99,0.725 -2.429,1.164 -0.438,0.438 -1.121,0.797 -1.517,0.797 -0.396,0 -0.909,0.189 -1.141,0.421 -0.231,0.231 -1.365,0.669 -2.52,0.974 -1.155,0.305 -2.411,0.835 -2.791,1.179 -0.38,0.344 -0.912,0.626 -1.181,0.626 -0.27,0 -1.33,0.382 -2.356,0.85 -1.026,0.467 -2.591,0.94 -3.478,1.05 -0.887,0.111 -2.153,0.519 -2.813,0.907 -0.66,0.389 -1.83,0.837 -2.6,0.996 -0.77,0.159 -1.605,0.454 -1.856,0.655 -0.25,0.202 -1.6,0.567 -3,0.811 -1.399,0.245 -3.171,0.779 -3.938,1.188 -0.767,0.409 -1.885,0.743 -2.485,0.743 -0.6,0 -1.953,0.337 -3.006,0.748 -1.053,0.412 -3.175,0.877 -4.715,1.033 -1.54,0.157 -3.226,0.558 -3.746,0.891 -0.52,0.334 -2.5,0.853 -4.4,1.154 -1.9,0.301 -5.704,0.9 -8.454,1.331 -2.75,0.431 -5.54,0.968 -6.2,1.193 -0.66,0.225 -3.717,0.704 -6.794,1.064 -3.077,0.36 -5.758,0.757 -5.959,0.881 -0.201,0.124 -3.443,0.371 -7.206,0.55 -3.763,0.178 -7.442,0.503 -8.177,0.722 -4.413,1.314 -60.374,1.697 -65.864,0.45 -1.1,-0.249 -4.25,-0.626 -7,-0.836 -10.313,-0.788 -24.171,-2.459 -25.6,-3.087 -0.55,-0.242 -2.969,-0.643 -5.375,-0.893 -2.407,-0.249 -4.676,-0.614 -5.042,-0.81 -0.367,-0.196 -1.908,-0.473 -3.425,-0.616 -1.517,-0.142 -3.478,-0.589 -4.358,-0.992 -0.88,-0.404 -2.949,-0.863 -4.598,-1.02 -1.649,-0.157 -3.6,-0.537 -4.335,-0.844 -0.736,-0.308 -2.34,-0.744 -3.565,-0.971 -1.225,-0.226 -2.604,-0.658 -3.065,-0.958 -0.46,-0.3 -2.09,-0.746 -3.622,-0.989 -1.531,-0.244 -2.971,-0.589 -3.2,-0.766 -0.228,-0.177 -1.027,-0.439 -1.775,-0.581 -0.748,-0.142 -2.098,-0.597 -3,-1.011 -0.902,-0.415 -2.54,-0.939 -3.64,-1.165 -2.408,-0.496 -5.63,-1.668 -7,-2.547 -0.55,-0.353 -1.699,-0.764 -2.554,-0.914 -0.855,-0.151 -2.202,-0.621 -2.994,-1.045 C 58.06,242.347 57.212,242 56.967,242 c -0.244,0 -0.86,-0.36 -1.367,-0.8 -0.578,-0.502 -1.497,-0.8 -2.461,-0.8 -2.484,0 -2.016,0.641 1.861,2.551 0.66,0.325 1.47,0.694 1.8,0.82 0.33,0.126 1.74,0.859 3.134,1.629 1.393,0.77 2.797,1.4 3.118,1.4 0.322,0 1.43,0.45 2.463,1 1.033,0.55 2.122,1 2.419,1 0.297,0 0.997,0.36 1.557,0.8 0.559,0.44 1.49,0.8 2.069,0.8 0.578,0 1.724,0.36 2.544,0.8 0.821,0.44 1.68,0.8 1.907,0.8 0.228,0 1.084,0.302 1.902,0.67 0.818,0.369 2.747,0.977 4.287,1.352 1.54,0.375 3.34,0.864 4,1.088 0.66,0.223 2.1,0.713 3.2,1.088 1.1,0.375 2.9,0.857 4,1.07 1.1,0.213 2.9,0.65 4,0.97 1.1,0.321 2.945,0.754 4.1,0.962 1.155,0.209 2.595,0.629 3.2,0.934 0.605,0.305 2.648,0.669 4.541,0.808 1.893,0.14 4.571,0.615 5.952,1.056 1.381,0.441 3.223,0.802 4.092,0.802 0.87,0 2.962,0.345 4.648,0.766 1.687,0.421 4.957,0.886 7.267,1.033 2.31,0.146 5.299,0.513 6.643,0.815 1.344,0.301 5.214,0.747 8.6,0.991 3.386,0.243 6.819,0.615 7.629,0.827 5.987,1.562 85.601,1.537 89.719,-0.029 0.562,-0.213 3.678,-0.566 6.924,-0.784 3.246,-0.218 6.438,-0.579 7.093,-0.802 0.656,-0.223 3.892,-0.662 7.192,-0.975 3.3,-0.314 6.505,-0.766 7.122,-1.005 0.618,-0.239 2.766,-0.62 4.774,-0.848 2.008,-0.227 3.843,-0.561 4.078,-0.742 0.595,-0.458 4.844,-1.247 6.719,-1.247 0.858,0 1.94,-0.203 2.404,-0.452 0.981,-0.525 7.56,-2.261 10.555,-2.785 1.128,-0.197 2.838,-0.716 3.8,-1.152 0.961,-0.436 2.203,-0.797 2.759,-0.802 0.556,-0.005 1.366,-0.253 1.8,-0.552 0.434,-0.299 1.779,-0.763 2.989,-1.031 1.21,-0.268 2.74,-0.735 3.4,-1.036 4.639,-2.118 5.863,-2.59 6.713,-2.59 0.53,0 1.289,-0.36 1.687,-0.8 0.398,-0.44 1.101,-0.801 1.562,-0.803 0.461,-0.001 1.378,-0.363 2.038,-0.803 0.66,-0.441 1.92,-0.999 2.8,-1.239 0.88,-0.241 1.69,-0.578 1.8,-0.749 0.11,-0.171 1.55,-0.996 3.2,-1.834 1.65,-0.838 3.99,-2.209 5.2,-3.047 1.21,-0.838 2.445,-1.524 2.744,-1.524 0.299,-0.001 0.929,-0.36 1.4,-0.8 0.471,-0.439 1.457,-1.324 2.191,-1.967 l 1.335,-1.168 -0.135,-4.601 c -0.074,-2.53 -0.284,-4.75 -0.467,-4.933 -0.573,-0.573 -11.556,-0.602 -12.501,-0.034 M 45.6,237.353 c 0,0.355 1.618,0.541 1.823,0.209 0.123,-0.199 -0.236,-0.362 -0.799,-0.362 -0.563,0 -1.024,0.069 -1.024,0.153 m 2.678,1.303 c -0.454,0.453 0.142,0.944 1.146,0.944 1.097,0 1.308,-0.587 0.343,-0.957 -0.807,-0.31 -1.17,-0.307 -1.489,0.013"
       stroke="none"
       fill="#3742ed"
       fill-rule="evenodd" />
    <path
       id="path1"
       d="m 30,200 v 75 H 200 375 V 200 120 H 200 30 v 80 m 207.996,-69.602 c 0.44,0.235 3.726,0.601 7.302,0.812 3.576,0.211 7.312,0.559 8.302,0.772 0.99,0.214 3.33,0.586 5.2,0.828 1.87,0.241 4.48,0.616 5.8,0.833 1.32,0.217 4.047,0.64 6.061,0.94 2.013,0.301 4.079,0.771 4.591,1.045 0.512,0.274 2.507,0.644 4.433,0.821 1.926,0.178 4.046,0.605 4.711,0.949 0.665,0.344 2.687,0.81 4.494,1.037 1.806,0.226 3.47,0.55 3.697,0.718 0.621,0.461 3.572,1.247 4.683,1.247 0.537,0 1.326,0.264 1.754,0.587 0.427,0.323 1.153,0.593 1.614,0.6 0.461,0.007 1.901,0.385 3.2,0.84 1.299,0.455 2.992,0.976 3.762,1.158 0.77,0.182 2.3,0.688 3.4,1.125 1.1,0.437 3.53,1.293 5.4,1.902 1.87,0.609 3.684,1.351 4.031,1.648 0.348,0.297 0.999,0.54 1.447,0.54 0.448,0 1.272,0.36 1.831,0.8 0.56,0.44 1.369,0.8 1.798,0.8 0.43,0 1.444,0.45 2.255,1 0.81,0.55 1.63,1 1.822,1 0.192,0 1.489,0.631 2.882,1.402 1.394,0.772 3.299,1.755 4.234,2.186 0.935,0.431 1.7,0.97 1.7,1.198 0,0.228 0.346,0.414 0.769,0.414 0.423,0 1.304,0.45 1.958,1 0.654,0.55 1.318,1 1.477,1 0.382,0 4.84,3.16 6.065,4.3 0.532,0.495 1.088,0.9 1.235,0.9 0.314,0 0.818,0.46 5.106,4.658 3.935,3.85 6.59,6.92 6.59,7.618 0,0.288 0.183,0.524 0.406,0.524 0.224,0 0.707,0.63 1.075,1.4 0.367,0.77 0.8,1.4 0.962,1.4 0.162,0 0.511,0.675 0.775,1.5 0.264,0.825 0.799,1.86 1.187,2.3 0.389,0.44 1.082,2.06 1.54,3.6 0.458,1.54 1.153,3.88 1.544,5.2 0.994,3.356 0.998,12.382 0.006,15.114 -0.382,1.053 -0.695,2.465 -0.695,3.138 0,0.674 -0.264,1.702 -0.587,2.286 -0.324,0.584 -0.854,1.737 -1.18,2.562 -0.326,0.825 -0.781,1.5 -1.013,1.5 -0.231,0 -0.42,0.436 -0.42,0.969 0,0.533 -0.405,1.48 -0.9,2.103 -0.495,0.624 -1.08,1.423 -1.3,1.775 -2.548,4.081 -5.298,7.153 -6.404,7.153 -1.191,0 -1.282,-0.341 -1.617,-6.085 -0.349,-5.988 -0.263,-5.915 -6.957,-5.915 -6.072,0 -6.235,-0.243 -3.454,-5.143 1.007,-1.776 1.832,-3.359 1.832,-3.517 0,-0.158 0.352,-1.019 0.783,-1.914 3.129,-6.496 1.206,-19.683 -3.859,-26.464 -0.508,-0.681 -0.924,-1.338 -0.924,-1.461 0,-1.362 -13.932,-14.467 -16.4,-15.427 -0.33,-0.129 -0.78,-0.375 -1,-0.548 -0.22,-0.173 -0.94,-0.742 -1.6,-1.265 -0.66,-0.523 -1.65,-1.087 -2.2,-1.254 -0.55,-0.166 -1.301,-0.565 -1.668,-0.888 -0.769,-0.673 -2.628,-1.777 -4.932,-2.927 -0.88,-0.439 -2.585,-1.336 -3.789,-1.993 -1.203,-0.658 -2.804,-1.399 -3.557,-1.647 -0.752,-0.248 -2.557,-1.036 -4.011,-1.75 -1.454,-0.714 -3.093,-1.434 -3.643,-1.599 -0.55,-0.166 -1.18,-0.435 -1.4,-0.6 -0.22,-0.164 -1.12,-0.522 -2,-0.795 -0.88,-0.273 -2.144,-0.806 -2.809,-1.185 -0.665,-0.379 -1.857,-0.794 -2.649,-0.922 -0.791,-0.129 -2.262,-0.609 -3.268,-1.067 -1.007,-0.459 -2.122,-0.834 -2.478,-0.834 -0.356,0 -1.491,-0.339 -2.522,-0.752 -1.031,-0.414 -3.764,-1.242 -6.074,-1.839 -2.31,-0.598 -4.783,-1.336 -5.496,-1.64 -0.713,-0.304 -2.494,-0.744 -3.958,-0.978 -1.464,-0.234 -3.035,-0.625 -3.492,-0.869 -0.456,-0.244 -2.275,-0.688 -4.042,-0.985 -1.766,-0.298 -3.932,-0.793 -4.812,-1.101 -0.88,-0.308 -2.5,-0.671 -3.6,-0.806 -1.1,-0.136 -2.9,-0.418 -4,-0.627 -1.1,-0.209 -3.653,-0.644 -5.674,-0.968 -2.021,-0.323 -4.217,-0.868 -4.88,-1.211 -0.664,-0.343 -1.8,-0.626 -2.526,-0.629 -1.287,-0.004 -5.413,-0.955 -5.793,-1.334 -0.886,-0.887 8.249,-1.13 9.869,-0.263 M 279,181.855 c 0.44,0.229 1.34,0.675 2,0.993 1.091,0.526 1.211,0.779 1.318,2.787 0.176,3.303 -0.555,3.83 -4.443,3.203 -10.074,-1.625 -15.554,3.585 -14.298,13.593 0.42,3.338 1.625,5.219 4.851,7.569 1.327,0.967 1.573,0.999 7.437,0.964 6.799,-0.04 6.935,0.023 6.935,3.211 0,3.276 -6.541,5.036 -13.6,3.66 -2.845,-0.555 -4.8,-1.148 -4.8,-1.455 0,-0.174 -0.52,-0.431 -1.155,-0.57 -4.301,-0.945 -8.859,-9.125 -8.84,-15.867 0.021,-7.888 5.89,-16.329 12.061,-17.347 0.954,-0.158 1.914,-0.427 2.134,-0.598 1.086,-0.846 8.838,-0.953 10.4,-0.143 M 79.733,182.8 c 0.308,0.33 0.754,1.32 0.99,2.2 0.473,1.764 1.472,4.939 2.14,6.8 0.236,0.66 0.686,2.19 0.998,3.4 0.312,1.21 0.811,2.65 1.108,3.2 0.297,0.55 0.668,1.774 0.824,2.72 0.245,1.48 1.447,3.28 2.191,3.28 0.129,0 0.436,-0.765 0.682,-1.7 0.246,-0.935 0.724,-2.51 1.062,-3.5 0.338,-0.99 1.101,-3.42 1.695,-5.4 0.595,-1.98 1.317,-4.14 1.604,-4.8 0.288,-0.66 0.642,-1.975 0.787,-2.923 0.513,-3.346 1.394,-3.857 6.916,-4.01 7.23,-0.2 6.47,-2.275 6.47,17.667 0,19.316 0.313,17.866 -3.857,17.866 -4.294,0 -4.143,0.448 -4.143,-12.265 0,-6.561 -0.15,-10.58 -0.4,-10.735 -0.23,-0.142 -0.404,0.231 -0.409,0.876 -0.005,0.618 -0.366,1.912 -0.803,2.876 -0.437,0.963 -0.905,2.493 -1.039,3.4 -0.134,0.906 -0.493,2.048 -0.798,2.537 -0.305,0.488 -0.754,1.838 -0.998,3 -0.244,1.161 -0.662,2.381 -0.929,2.711 -0.268,0.33 -0.702,1.579 -0.966,2.776 -0.263,1.197 -0.939,2.779 -1.501,3.516 l -1.022,1.339 -3.267,-0.115 -3.268,-0.116 -0.6,-1.849 c -0.33,-1.017 -0.805,-2.097 -1.055,-2.4 -0.25,-0.303 -0.579,-1.305 -0.731,-2.228 -0.152,-0.922 -0.622,-2.355 -1.045,-3.184 -0.423,-0.83 -0.769,-2.087 -0.769,-2.795 0,-0.708 -0.274,-1.561 -0.61,-1.896 -0.335,-0.336 -0.817,-1.654 -1.071,-2.929 -0.254,-1.275 -0.703,-2.499 -0.998,-2.719 -0.295,-0.221 -0.698,-0.941 -0.895,-1.6 -0.233,-0.782 -0.369,2.494 -0.392,9.411 -0.041,12.773 0.082,12.389 -3.98,12.389 -4.381,0 -4.043,1.432 -4.058,-17.2 -0.007,-8.91 -0.009,-16.521 -0.005,-16.913 0.019,-1.546 10.77,-2.154 12.142,-0.687 m 52.667,-0.284 c 0.868,0.437 1.016,0.811 1.121,2.828 0.178,3.424 0.12,3.456 -6.337,3.456 -7.069,0 -6.784,-0.133 -6.784,3.163 0,3.612 0.041,3.637 5.87,3.637 h 4.909 l 0.611,1.18 c 2.198,4.25 0.571,6.02 -5.533,6.02 -5.83,0 -5.857,0.017 -5.857,3.706 0,4.364 -0.102,4.294 6.24,4.294 6.791,0 6.96,0.081 6.96,3.334 0,1.416 -0.209,2.715 -0.48,2.986 -0.796,0.796 -19.074,0.667 -20.231,-0.143 L 112,216.355 V 199.8 183.245 l 0.889,-0.622 c 1.176,-0.824 17.906,-0.916 19.511,-0.107 m 31.269,0.146 c 0.894,0.81 1.047,4.977 0.208,5.674 -0.288,0.239 -2.403,0.486 -4.7,0.549 L 155,189 l -0.105,13.912 -0.105,13.912 -1.021,0.388 c -0.562,0.213 -2.03,0.388 -3.264,0.388 -3.897,0 -3.705,0.769 -3.705,-14.815 v -13.492 l -0.9,-0.241 c -0.495,-0.133 -2.441,-0.244 -4.324,-0.247 -4.465,-0.007 -4.859,-0.292 -4.699,-3.406 0.179,-3.465 -0.149,-3.386 14.092,-3.393 10.58,-0.005 12.053,0.071 12.7,0.656 m 18.345,-0.055 c 0.711,0.368 1.267,1.038 1.41,1.7 0.13,0.601 0.583,1.748 1.006,2.547 0.424,0.8 0.776,1.7 0.783,2 0.006,0.301 0.455,1.446 0.996,2.546 0.541,1.1 0.987,2.27 0.99,2.6 0.003,0.33 0.364,1.14 0.801,1.8 0.437,0.66 0.802,1.56 0.81,2 0.008,0.44 0.458,1.7 0.999,2.8 0.541,1.1 0.985,2.221 0.987,2.49 0.002,0.27 0.363,1.08 0.803,1.8 0.439,0.721 0.804,1.67 0.812,2.11 0.008,0.44 0.457,1.7 0.998,2.8 0.541,1.1 0.985,2.281 0.987,2.624 0.002,0.342 0.268,0.972 0.591,1.4 1.759,2.325 0.511,3.776 -3.248,3.776 -3.808,0 -4.831,-0.489 -5.36,-2.565 -0.479,-1.88 -1.594,-4.299 -2.179,-4.729 -0.22,-0.162 -3.14,-0.297 -6.488,-0.3 l -6.089,-0.006 -0.956,2.1 c -0.527,1.155 -1.19,2.7 -1.475,3.434 -0.771,1.989 -5.791,2.978 -7.771,1.531 -0.8,-0.585 -0.307,-4.131 0.761,-5.465 0.264,-0.33 0.7,-1.41 0.97,-2.4 0.269,-0.99 0.741,-2.34 1.048,-3 1.887,-4.057 2.6,-5.837 2.6,-6.486 0,-0.405 0.293,-1.155 0.652,-1.667 0.358,-0.512 0.819,-1.674 1.023,-2.583 0.204,-0.909 0.614,-1.925 0.911,-2.258 0.297,-0.333 0.754,-1.416 1.016,-2.406 0.262,-0.99 0.615,-1.98 0.784,-2.2 0.17,-0.22 0.611,-1.328 0.981,-2.463 1.306,-4.006 5.807,-5.619 9.847,-3.53 m 31.644,-0.075 c 1.462,0.257 3.007,0.783 3.432,1.168 0.425,0.385 1.04,0.7 1.367,0.7 0.612,0 2.416,1.741 2.9,2.8 0.151,0.33 0.535,1.05 0.853,1.6 0.603,1.042 0.807,6.015 0.342,8.338 -0.732,3.664 -6.252,7.091 -12.217,7.586 L 207,205 l -0.107,5.8 c -0.089,4.877 -0.213,5.88 -0.776,6.3 -0.871,0.65 -6.191,0.666 -6.837,0.02 -0.88,-0.88 -0.669,-34.17 0.22,-34.688 0.948,-0.552 10.855,-0.482 14.158,0.1 m 28.832,0.568 c 0.573,0.605 1.254,1.91 1.514,2.9 0.261,0.99 0.616,1.98 0.79,2.2 0.505,0.641 2.806,6.601 2.806,7.268 0,0.335 0.354,1.105 0.786,1.712 0.432,0.607 0.91,1.878 1.061,2.823 0.151,0.945 0.607,2.051 1.014,2.458 0.406,0.406 0.739,1.145 0.739,1.642 0,0.497 0.45,1.749 1,2.782 0.55,1.033 1,2.315 1,2.848 0,0.533 0.265,1.189 0.589,1.458 0.325,0.269 0.708,1.146 0.853,1.949 0.145,0.803 0.434,1.79 0.643,2.193 0.821,1.588 -0.649,2.309 -4.445,2.181 l -3.409,-0.114 -0.6,-1.6 c -0.33,-0.88 -0.811,-1.816 -1.068,-2.08 -0.256,-0.265 -0.582,-1.098 -0.724,-1.852 -0.323,-1.721 -0.937,-1.868 -7.817,-1.868 -5.883,0 -6.45,0.316 -7.462,4.153 -0.742,2.81 -1.675,3.427 -5.198,3.438 -3.646,0.012 -4.712,-0.827 -3.701,-2.911 1.049,-2.164 2.398,-5.611 2.741,-7.009 0.18,-0.731 0.604,-1.636 0.943,-2.011 0.339,-0.374 0.739,-1.486 0.889,-2.47 0.15,-0.985 0.502,-2.06 0.782,-2.39 0.28,-0.33 0.721,-1.394 0.979,-2.364 0.259,-0.97 0.711,-2.14 1.005,-2.6 0.294,-0.46 0.736,-1.601 0.983,-2.536 0.246,-0.935 0.601,-1.7 0.788,-1.7 0.187,0 0.463,-0.675 0.614,-1.5 0.15,-0.825 0.62,-2.095 1.044,-2.823 0.424,-0.727 0.771,-1.574 0.771,-1.881 0,-3.276 7.541,-4.992 10.09,-2.296 m 51.131,-0.363 c 0.866,0.701 0.906,0.97 0.82,5.566 -0.11,5.849 0.361,6.6 2.628,4.196 0.732,-0.776 1.331,-1.533 1.331,-1.683 0,-0.149 0.405,-0.642 0.9,-1.095 0.495,-0.453 1.529,-1.611 2.298,-2.572 0.769,-0.962 2.14,-2.514 3.047,-3.449 l 1.65,-1.7 h 3.43 c 5.078,0 5.655,1.224 2.28,4.837 -0.333,0.357 -1.325,1.512 -2.205,2.568 -0.88,1.056 -2.05,2.404 -2.6,2.997 -5.88,6.334 -5.903,6.416 -2.8,9.998 1.1,1.27 2,2.509 2,2.754 0,0.245 0.164,0.446 0.365,0.446 0.2,0 1.361,1.325 2.579,2.943 2.152,2.859 3.087,4.019 4.956,6.148 1.855,2.114 0.742,2.879 -4.215,2.896 l -3.715,0.013 -1.783,-1.834 c -0.98,-1.009 -2.092,-2.359 -2.471,-3 -0.379,-0.641 -0.825,-1.166 -0.992,-1.166 -0.167,0 -0.588,-0.55 -0.935,-1.221 -0.347,-0.672 -0.937,-1.553 -1.31,-1.958 -1.52,-1.649 -2.479,-2.909 -2.479,-3.255 0,-0.628 -1.501,-0.4 -1.757,0.267 -0.134,0.348 -0.243,2.899 -0.243,5.668 0,6.27 -0.141,6.499 -3.986,6.499 -4.536,0 -4.195,1.31 -4.337,-16.667 -0.127,-16.013 0.048,-18.296 1.431,-18.659 1.909,-0.5 5.235,-0.249 6.113,0.463 m -86.521,6.291 c -0.508,0.517 -0.352,7.56 0.18,8.092 2.105,2.105 7.139,-0.764 7.108,-4.052 -0.025,-2.741 -5.552,-5.804 -7.288,-4.04 m 30.1,4.287 c 0,0.504 -0.337,1.576 -0.748,2.384 -0.412,0.807 -0.965,2.327 -1.23,3.379 -0.265,1.051 -0.66,2.126 -0.877,2.389 -0.662,0.797 0.956,1.333 4.029,1.333 1.97,0 2.84,-0.152 2.872,-0.5 0.098,-1.061 -0.106,-1.849 -0.862,-3.332 -0.431,-0.845 -0.784,-1.984 -0.784,-2.531 0,-0.833 -1.789,-4.037 -2.254,-4.037 -0.08,0 -0.146,0.412 -0.146,0.915 m -59.484,-0.006 c -0.655,0.296 -0.95,0.875 -1.142,2.245 -0.143,1.015 -0.585,2.416 -0.984,3.113 -0.667,1.168 -0.945,2.378 -0.834,3.633 0.031,0.351 0.924,0.5 2.995,0.5 3.099,0 4.143,-0.49 3.432,-1.613 -0.204,-0.323 -0.374,-1.042 -0.377,-1.598 -0.003,-0.556 -0.265,-1.381 -0.582,-1.833 -0.317,-0.453 -0.812,-1.728 -1.1,-2.834 -0.486,-1.866 -0.588,-1.982 -1.408,-1.613 m 170.171,30.897 c 0.969,0.678 1.172,1.779 1.465,7.915 0.194,4.074 -0.894,6.679 -2.79,6.679 -0.305,0 -0.78,0.36 -1.055,0.8 -0.275,0.44 -0.738,0.8 -1.03,0.8 -0.292,0 -1.12,0.45 -1.841,1 -0.722,0.55 -1.511,1 -1.754,1 -0.243,0 -0.586,0.251 -0.762,0.557 -0.176,0.306 -0.95,0.844 -1.72,1.195 -0.77,0.35 -2.54,1.27 -3.934,2.043 -1.393,0.773 -2.764,1.405 -3.046,1.405 -0.282,0 -0.941,0.335 -1.466,0.745 -0.525,0.41 -1.404,0.872 -1.954,1.027 -0.55,0.156 -1.54,0.535 -2.2,0.843 -0.66,0.308 -2.55,1.109 -4.2,1.78 -1.65,0.67 -3.51,1.486 -4.134,1.813 -0.623,0.326 -1.883,0.706 -2.8,0.844 -0.916,0.137 -2.206,0.571 -2.866,0.964 -0.66,0.393 -2.094,0.846 -3.187,1.007 -1.093,0.162 -2.21,0.517 -2.483,0.79 -0.273,0.272 -1.603,0.691 -2.957,0.929 -1.354,0.239 -2.667,0.602 -2.917,0.808 -0.251,0.206 -1.626,0.585 -3.056,0.842 -1.43,0.257 -3.048,0.65 -3.595,0.873 -0.548,0.222 -2.592,0.663 -4.543,0.978 -1.95,0.316 -3.898,0.762 -4.328,0.992 -0.43,0.23 -2.357,0.581 -4.282,0.781 -1.926,0.199 -4.12,0.616 -4.877,0.926 -0.756,0.311 -2.995,0.694 -4.975,0.852 -1.98,0.158 -3.78,0.425 -4,0.593 -0.525,0.403 -3.159,0.718 -10.068,1.207 -3.118,0.221 -6.178,0.597 -6.8,0.836 -0.623,0.239 -4.732,0.599 -9.132,0.801 -4.4,0.202 -8.9,0.592 -10,0.868 -2.887,0.723 -57.204,0.718 -61.2,-0.006 -1.54,-0.279 -7.03,-0.668 -12.2,-0.863 -5.17,-0.195 -9.91,-0.554 -10.534,-0.796 -0.624,-0.242 -3.864,-0.634 -7.2,-0.87 -3.336,-0.237 -6.786,-0.612 -7.666,-0.834 -0.88,-0.222 -3.58,-0.627 -6,-0.9 -2.42,-0.274 -4.76,-0.694 -5.2,-0.935 -0.44,-0.241 -2.688,-0.646 -4.995,-0.901 -2.308,-0.255 -4.766,-0.701 -5.464,-0.993 -0.697,-0.291 -2.479,-0.659 -3.96,-0.818 -1.481,-0.158 -3.162,-0.533 -3.737,-0.833 -0.574,-0.3 -1.53,-0.546 -2.124,-0.548 -1.173,-0.002 -4.714,-0.863 -6.32,-1.535 -0.55,-0.23 -1.853,-0.53 -2.895,-0.667 -1.043,-0.136 -2.129,-0.481 -2.415,-0.767 -0.286,-0.286 -1.531,-0.646 -2.767,-0.8 -1.237,-0.155 -2.933,-0.63 -3.77,-1.057 -0.837,-0.427 -1.889,-0.778 -2.338,-0.78 -0.448,-0.002 -1.715,-0.446 -2.815,-0.987 -1.1,-0.541 -2.324,-0.99 -2.72,-0.996 -0.396,-0.007 -1.274,-0.3 -1.951,-0.65 -0.677,-0.35 -2.108,-0.897 -3.18,-1.215 -1.072,-0.319 -1.949,-0.752 -1.949,-0.963 0,-0.212 -0.405,-0.386 -0.9,-0.387 -0.495,-0.001 -1.62,-0.446 -2.5,-0.988 -0.88,-0.542 -1.897,-0.991 -2.259,-0.998 -0.657,-0.012 -4.925,-2.064 -5.8,-2.787 -0.253,-0.209 -1.063,-0.661 -1.8,-1.005 -0.738,-0.344 -2.061,-1.068 -2.941,-1.609 -0.88,-0.54 -2.209,-1.272 -2.954,-1.625 -1.562,-0.741 -3.783,-2.243 -3.982,-2.694 -0.075,-0.17 -0.704,-0.602 -1.397,-0.961 -1.835,-0.949 -3.867,-2.652 -3.867,-3.241 0,-0.28 -0.45,-0.681 -1,-0.89 -1.231,-0.468 -1.285,-1.056 -0.13,-1.422 0.586,-0.186 1.023,-0.065 1.343,0.372 0.26,0.356 1.03,0.759 1.71,0.895 0.68,0.136 1.543,0.586 1.919,1.001 0.375,0.415 0.907,0.754 1.183,0.754 0.275,0 2.805,1.17 5.621,2.6 2.816,1.43 5.399,2.6 5.74,2.6 0.341,0 1.466,0.45 2.499,1 1.033,0.55 2.225,1 2.648,1 0.423,0 0.977,0.25 1.23,0.556 0.254,0.305 1.294,0.765 2.312,1.021 1.019,0.257 2.223,0.727 2.677,1.045 0.454,0.318 1.231,0.578 1.725,0.578 0.495,0 1.883,0.45 3.086,1 1.202,0.55 2.654,1 3.227,1 0.573,0 1.714,0.343 2.535,0.762 0.822,0.419 2.39,0.891 3.484,1.049 1.095,0.158 2.261,0.513 2.591,0.79 0.33,0.277 1.859,0.718 3.398,0.98 1.539,0.262 3.828,0.824 5.087,1.248 1.26,0.424 2.7,0.772 3.202,0.773 0.502,0.002 1.382,0.248 1.956,0.547 0.574,0.3 2.104,0.672 3.4,0.827 1.296,0.156 3.707,0.611 5.357,1.013 1.65,0.401 4.151,0.85 5.558,0.997 1.407,0.147 3.207,0.51 4,0.807 0.793,0.297 3.39,0.744 5.771,0.994 2.382,0.25 4.722,0.6 5.2,0.777 0.479,0.177 3.751,0.554 7.271,0.838 3.52,0.285 7.098,0.76 7.95,1.058 0.853,0.297 3.022,0.54 4.821,0.54 1.799,0 7.401,0.313 12.45,0.695 17.137,1.297 56.335,0.655 68.179,-1.116 1.43,-0.214 4.94,-0.657 7.8,-0.984 2.86,-0.327 6.73,-0.861 8.6,-1.185 1.87,-0.325 4.891,-0.772 6.714,-0.994 1.822,-0.221 3.648,-0.582 4.058,-0.801 0.409,-0.219 1.798,-0.512 3.086,-0.651 1.288,-0.139 3.617,-0.576 5.176,-0.971 1.559,-0.396 3.899,-0.852 5.2,-1.014 1.301,-0.162 2.726,-0.521 3.166,-0.798 0.44,-0.277 1.61,-0.634 2.6,-0.793 0.99,-0.159 2.858,-0.626 4.152,-1.038 1.294,-0.413 2.831,-0.75 3.416,-0.75 0.584,0 1.766,-0.358 2.625,-0.796 0.859,-0.438 2.196,-0.916 2.971,-1.061 0.775,-0.146 2.135,-0.577 3.022,-0.959 0.888,-0.383 2.469,-0.816 3.514,-0.964 1.045,-0.148 1.9,-0.433 1.9,-0.633 0,-0.201 1.035,-0.664 2.3,-1.029 1.265,-0.365 2.655,-0.91 3.089,-1.211 0.434,-0.301 1.03,-0.547 1.325,-0.547 0.557,0 4.022,-1.5 6.54,-2.831 0.8,-0.423 1.8,-0.769 2.223,-0.769 0.422,0 1.378,-0.45 2.123,-1 0.745,-0.55 1.67,-1 2.054,-1 0.384,0 0.819,-0.195 0.966,-0.433 0.148,-0.238 1.013,-0.786 1.924,-1.217 2.859,-1.354 4.046,-2.054 4.351,-2.566 0.162,-0.272 0.78,-0.616 1.373,-0.765 0.593,-0.149 1.571,-0.664 2.174,-1.145 2.949,-2.353 3.386,-2.664 3.758,-2.674 0.22,-0.005 1.173,-0.728 2.117,-1.605 0.945,-0.877 1.819,-1.595 1.943,-1.595 0.123,0 0.759,-0.45 1.413,-1 1.486,-1.25 11.761,-1.552 13.414,-0.394"
       stroke="none"
       fill="#F5F5F5"
       fill-rule="evenodd"
       sodipodi:nodetypes="ccccccccccsccscscsccscssssscscscscssssssscsscsscsccscsssccscscsccscsscccccsccssccsccssccscscccccccsccccscsccccccccsscsssccccsssccccccccccccssccscscccscccccsssccssssscccccccccccccssccccccccccsssssscssscsscccccccccscsssccccsscccccccscccccssssssscscccsccsccccccscscsccsccccsscccscsccsscccccssccscssccccsccccccsccssccccsscscccccssscssccsscscccsccccsccsccscccscssscscscccccccscssscscssscscccscscccscsssssccsscsccsscccccssccccsccscccscssscssccssssscsssccsscccscc" />
    <path
       id="path2"
       d="m 244.112,132.695 c 1.052,0.082 2.672,0.081 3.6,-0.003 0.928,-0.084 0.068,-0.151 -1.912,-0.15 -1.98,0.001 -2.74,0.07 -1.688,0.153 m 6.508,1.272 c -0.236,0.383 0.603,0.602 3.98,1.042 1.1,0.143 2.54,0.502 3.2,0.797 0.66,0.295 2.19,0.659 3.4,0.81 1.21,0.15 2.83,0.548 3.6,0.885 0.77,0.336 2.66,0.845 4.2,1.13 2.653,0.491 7.862,1.9 9.6,2.596 0.44,0.176 1.43,0.507 2.2,0.735 4.732,1.403 7.176,2.237 8.484,2.893 0.816,0.41 1.776,0.745 2.132,0.745 0.673,0 5.42,1.732 6.737,2.458 0.414,0.228 1.494,0.675 2.4,0.993 2.479,0.869 3.806,1.438 6.175,2.649 1.184,0.605 2.34,1.1 2.569,1.1 0.228,0 1.745,0.8 3.371,1.777 1.626,0.977 3.356,1.901 3.844,2.053 0.489,0.151 1.886,0.972 3.105,1.823 1.22,0.851 2.332,1.547 2.472,1.547 0.412,0 4.941,3.088 7.213,4.918 1.154,0.93 2.548,1.982 3.098,2.338 6.704,4.339 14.523,15.515 16.609,23.74 2.012,7.93 1.069,13.257 -4.128,23.32 -1.188,2.301 -1.286,2.25 4.767,2.484 6.158,0.238 5.757,-0.147 6.078,5.837 0.328,6.119 0.461,6.303 2.826,3.89 12.716,-12.972 13.35,-37.443 1.304,-50.361 -0.251,-0.269 -1.266,-1.43 -2.256,-2.581 -2.145,-2.492 -6.192,-6.437 -7.131,-6.951 -0.368,-0.201 -1.048,-0.768 -1.512,-1.259 -0.463,-0.491 -1.633,-1.383 -2.6,-1.983 -0.966,-0.6 -2.14,-1.44 -2.609,-1.866 -0.933,-0.849 -2.863,-2.025 -4.78,-2.91 -0.677,-0.314 -1.464,-0.85 -1.749,-1.193 -0.284,-0.343 -0.663,-0.623 -0.842,-0.623 -0.549,0 -2.099,-0.737 -3.777,-1.796 -0.88,-0.555 -2.23,-1.284 -3,-1.621 -1.825,-0.797 -4.249,-1.912 -6,-2.76 -0.77,-0.372 -2.93,-1.206 -4.8,-1.853 -1.87,-0.646 -3.94,-1.435 -4.6,-1.753 -1.331,-0.641 -5.225,-1.936 -8.6,-2.858 -1.21,-0.331 -2.767,-0.862 -3.46,-1.18 -0.694,-0.319 -1.581,-0.579 -1.972,-0.579 -0.391,0 -1.264,-0.168 -1.94,-0.373 -0.675,-0.205 -2.038,-0.587 -3.028,-0.849 -0.99,-0.262 -2.905,-0.822 -4.256,-1.245 -1.351,-0.423 -3.961,-1.016 -5.8,-1.318 -1.839,-0.302 -4.424,-0.831 -5.744,-1.176 -1.32,-0.344 -2.889,-0.629 -3.486,-0.633 -0.597,-0.003 -1.891,-0.279 -2.875,-0.613 -0.984,-0.334 -4.005,-0.858 -6.714,-1.165 -2.709,-0.306 -5.645,-0.749 -6.525,-0.983 -1.968,-0.524 -8.868,-0.582 -9.18,-0.078"
       stroke="none"
       fill="#12cf6b"
       fill-rule="evenodd" />
    <path
       id="path3"
       d="m 230.069,130.059 c -1.172,0.226 -2.046,0.497 -1.942,0.602 0.38,0.379 4.506,1.33 5.793,1.334 0.726,0.003 1.862,0.286 2.526,0.629 0.663,0.343 2.859,0.888 4.88,1.211 2.021,0.324 4.574,0.759 5.674,0.968 1.1,0.209 2.9,0.491 4,0.627 1.1,0.135 2.72,0.498 3.6,0.806 0.88,0.308 3.046,0.803 4.812,1.101 1.767,0.297 3.586,0.741 4.042,0.985 0.457,0.244 2.028,0.635 3.492,0.869 1.464,0.234 3.245,0.674 3.958,0.978 0.713,0.304 3.186,1.042 5.496,1.64 2.31,0.597 5.043,1.425 6.074,1.839 1.031,0.413 2.166,0.752 2.522,0.752 0.356,0 1.471,0.375 2.478,0.834 1.006,0.458 2.477,0.938 3.268,1.067 0.792,0.128 1.984,0.543 2.649,0.922 0.665,0.379 1.929,0.912 2.809,1.185 0.88,0.273 1.78,0.631 2,0.795 0.22,0.165 0.85,0.434 1.4,0.6 0.55,0.165 2.189,0.885 3.643,1.599 1.454,0.714 3.259,1.502 4.011,1.75 0.753,0.248 2.354,0.989 3.557,1.647 1.204,0.657 2.909,1.554 3.789,1.993 2.304,1.15 4.163,2.254 4.932,2.927 0.367,0.323 1.118,0.722 1.668,0.888 0.55,0.167 1.54,0.731 2.2,1.254 0.66,0.523 1.38,1.092 1.6,1.265 0.22,0.173 0.67,0.419 1,0.548 2.468,0.96 16.4,14.065 16.4,15.427 0,0.123 0.416,0.78 0.924,1.461 5.065,6.781 6.988,19.968 3.859,26.464 -0.431,0.895 -0.783,1.756 -0.783,1.914 0,0.158 -0.825,1.741 -1.832,3.517 -2.781,4.9 -2.618,5.143 3.454,5.143 6.694,0 6.608,-0.073 6.957,5.915 0.335,5.744 0.426,6.085 1.617,6.085 1.106,0 3.856,-3.072 6.404,-7.153 0.22,-0.352 0.805,-1.151 1.3,-1.775 0.495,-0.623 0.9,-1.57 0.9,-2.103 0,-0.533 0.189,-0.969 0.42,-0.969 0.232,0 0.687,-0.675 1.013,-1.5 0.326,-0.825 0.856,-1.978 1.18,-2.562 0.323,-0.584 0.587,-1.612 0.587,-2.286 0,-0.673 0.313,-2.085 0.695,-3.138 0.992,-2.732 0.988,-11.758 -0.006,-15.114 -0.391,-1.32 -1.086,-3.66 -1.544,-5.2 -0.458,-1.54 -1.151,-3.16 -1.54,-3.6 -0.388,-0.44 -0.923,-1.475 -1.187,-2.3 -0.264,-0.825 -0.613,-1.5 -0.775,-1.5 -0.162,0 -0.595,-0.63 -0.962,-1.4 -0.368,-0.77 -0.851,-1.4 -1.075,-1.4 -0.223,0 -0.406,-0.236 -0.406,-0.524 0,-0.698 -2.655,-3.768 -6.59,-7.618 -4.288,-4.198 -4.792,-4.658 -5.106,-4.658 -0.147,0 -0.703,-0.405 -1.235,-0.9 -1.225,-1.14 -5.683,-4.3 -6.065,-4.3 -0.159,0 -0.823,-0.45 -1.477,-1 -0.654,-0.55 -1.535,-1 -1.958,-1 -0.423,0 -0.769,-0.186 -0.769,-0.414 0,-0.228 -0.765,-0.767 -1.7,-1.198 -0.935,-0.431 -2.84,-1.414 -4.234,-2.186 -1.393,-0.771 -2.69,-1.402 -2.882,-1.402 -0.192,0 -1.012,-0.45 -1.822,-1 -0.811,-0.55 -1.825,-1 -2.255,-1 -0.429,0 -1.238,-0.36 -1.798,-0.8 -0.559,-0.44 -1.383,-0.8 -1.831,-0.8 -0.448,0 -1.099,-0.243 -1.447,-0.54 -0.347,-0.297 -2.161,-1.039 -4.031,-1.648 -1.87,-0.609 -4.3,-1.465 -5.4,-1.902 -1.1,-0.437 -2.63,-0.943 -3.4,-1.125 -0.77,-0.182 -2.463,-0.703 -3.762,-1.158 -1.299,-0.455 -2.739,-0.833 -3.2,-0.84 -0.461,-0.007 -1.187,-0.277 -1.614,-0.6 -0.428,-0.323 -1.217,-0.587 -1.754,-0.587 -1.111,0 -4.062,-0.786 -4.683,-1.247 -0.227,-0.168 -1.891,-0.492 -3.697,-0.718 -1.807,-0.227 -3.829,-0.693 -4.494,-1.037 -0.665,-0.344 -2.785,-0.771 -4.711,-0.949 -1.926,-0.177 -3.921,-0.547 -4.433,-0.821 -0.512,-0.274 -2.578,-0.744 -4.591,-1.045 -2.014,-0.3 -4.741,-0.723 -6.061,-0.94 -1.32,-0.217 -3.93,-0.592 -5.8,-0.833 -1.87,-0.242 -4.21,-0.614 -5.2,-0.828 -0.99,-0.213 -4.726,-0.561 -8.302,-0.772 -3.576,-0.211 -6.862,-0.577 -7.302,-0.812 -1.175,-0.629 -5.478,-0.813 -7.927,-0.339 m 17.643,2.633 c -0.928,0.084 -2.548,0.085 -3.6,0.003 -1.052,-0.083 -0.292,-0.152 1.688,-0.153 1.98,-0.001 2.84,0.066 1.912,0.15 m 12.088,1.353 c 0.88,0.234 3.816,0.677 6.525,0.983 2.709,0.307 5.73,0.831 6.714,1.165 0.984,0.334 2.278,0.61 2.875,0.613 0.597,0.004 2.166,0.289 3.486,0.633 1.32,0.345 3.905,0.874 5.744,1.176 1.839,0.302 4.449,0.895 5.8,1.318 1.351,0.423 3.266,0.983 4.256,1.245 0.99,0.262 2.353,0.644 3.028,0.849 0.676,0.205 1.549,0.373 1.94,0.373 0.391,0 1.278,0.26 1.972,0.579 0.693,0.318 2.25,0.849 3.46,1.18 3.375,0.922 7.269,2.217 8.6,2.858 0.66,0.318 2.73,1.107 4.6,1.753 1.87,0.647 4.03,1.481 4.8,1.853 1.751,0.848 4.175,1.963 6,2.76 0.77,0.337 2.12,1.066 3,1.621 1.678,1.059 3.228,1.796 3.777,1.796 0.179,0 0.558,0.28 0.842,0.623 0.285,0.343 1.072,0.879 1.749,1.193 1.917,0.885 3.847,2.061 4.78,2.91 0.469,0.426 1.643,1.266 2.609,1.866 0.967,0.6 2.137,1.492 2.6,1.983 0.464,0.491 1.144,1.058 1.512,1.259 0.939,0.514 4.986,4.459 7.131,6.951 0.99,1.151 2.005,2.312 2.256,2.581 12.046,12.918 11.412,37.389 -1.304,50.361 -2.365,2.413 -2.498,2.229 -2.826,-3.89 -0.321,-5.984 0.08,-5.599 -6.078,-5.837 -6.053,-0.234 -5.955,-0.183 -4.767,-2.484 5.197,-10.063 6.14,-15.39 4.128,-23.32 -2.086,-8.225 -9.905,-19.401 -16.609,-23.74 -0.55,-0.356 -1.944,-1.408 -3.098,-2.338 -2.272,-1.83 -6.801,-4.918 -7.213,-4.918 -0.14,0 -1.252,-0.696 -2.472,-1.547 -1.219,-0.851 -2.616,-1.672 -3.105,-1.823 -0.488,-0.152 -2.218,-1.076 -3.844,-2.053 -1.626,-0.977 -3.143,-1.777 -3.371,-1.777 -0.229,0 -1.385,-0.495 -2.569,-1.1 -2.369,-1.211 -3.696,-1.78 -6.175,-2.649 -0.906,-0.318 -1.986,-0.765 -2.4,-0.993 -1.317,-0.726 -6.064,-2.458 -6.737,-2.458 -0.356,0 -1.316,-0.335 -2.132,-0.745 -1.308,-0.656 -3.752,-1.49 -8.484,-2.893 -0.77,-0.228 -1.76,-0.559 -2.2,-0.735 -1.738,-0.696 -6.947,-2.105 -9.6,-2.596 -1.54,-0.285 -3.43,-0.794 -4.2,-1.13 -0.77,-0.337 -2.39,-0.735 -3.6,-0.885 -1.21,-0.151 -2.74,-0.515 -3.4,-0.81 -0.66,-0.295 -2.1,-0.654 -3.2,-0.797 -3.377,-0.44 -4.216,-0.659 -3.98,-1.042 0.312,-0.504 7.212,-0.446 9.18,0.078 m 10,47.423 c -0.44,0.12 -0.98,0.358 -1.2,0.53 -0.22,0.171 -1.18,0.44 -2.134,0.598 -6.171,1.018 -12.04,9.459 -12.061,17.347 -0.019,6.742 4.539,14.922 8.84,15.867 0.635,0.139 1.155,0.396 1.155,0.57 0,0.174 0.765,0.511 1.7,0.749 9.035,2.3 16.7,0.944 16.7,-2.954 0,-3.188 -0.136,-3.251 -6.935,-3.211 -5.864,0.035 -6.11,0.003 -7.437,-0.964 -3.226,-2.35 -4.431,-4.231 -4.851,-7.569 -1.256,-10.008 4.224,-15.218 14.298,-13.593 3.888,0.627 4.619,0.1 4.443,-3.203 -0.107,-2.008 -0.227,-2.261 -1.318,-2.787 -0.66,-0.318 -1.56,-0.764 -2,-0.993 -0.865,-0.448 -7.891,-0.744 -9.2,-0.387 m -201.3,0.924 c -0.495,0.21 -0.904,0.703 -0.909,1.095 -0.004,0.392 -0.002,8.003 0.005,16.913 0.015,18.632 -0.323,17.2 4.058,17.2 4.062,0 3.939,0.384 3.98,-12.389 0.023,-6.917 0.159,-10.193 0.392,-9.411 0.197,0.659 0.6,1.379 0.895,1.6 0.295,0.22 0.744,1.444 0.998,2.719 0.254,1.275 0.736,2.593 1.071,2.929 0.336,0.335 0.61,1.188 0.61,1.896 0,0.708 0.346,1.965 0.769,2.795 0.423,0.829 0.893,2.262 1.045,3.184 0.152,0.923 0.481,1.925 0.731,2.228 0.25,0.303 0.725,1.383 1.055,2.4 l 0.6,1.849 3.268,0.116 3.267,0.115 1.022,-1.339 c 0.562,-0.737 1.238,-2.319 1.501,-3.516 0.264,-1.197 0.698,-2.446 0.966,-2.776 0.267,-0.33 0.685,-1.55 0.929,-2.711 0.244,-1.162 0.693,-2.512 0.998,-3 0.305,-0.489 0.664,-1.631 0.798,-2.537 0.134,-0.907 0.602,-2.437 1.039,-3.4 0.437,-0.964 0.798,-2.258 0.803,-2.876 0.005,-0.645 0.179,-1.018 0.409,-0.876 0.25,0.155 0.4,4.174 0.4,10.735 0,12.713 -0.151,12.265 4.143,12.265 4.17,0 3.857,1.45 3.857,-17.866 0,-19.942 0.76,-17.867 -6.47,-17.667 -5.522,0.153 -6.403,0.664 -6.916,4.01 -0.145,0.948 -0.499,2.263 -0.787,2.923 -0.287,0.66 -1.009,2.82 -1.604,4.8 -0.594,1.98 -1.357,4.41 -1.695,5.4 -0.338,0.99 -0.816,2.565 -1.062,3.5 -0.246,0.935 -0.553,1.7 -0.682,1.7 -0.744,0 -1.946,-1.8 -2.191,-3.28 -0.156,-0.946 -0.527,-2.17 -0.824,-2.72 -0.297,-0.55 -0.796,-1.99 -1.108,-3.2 -0.312,-1.21 -0.762,-2.74 -0.998,-3.4 -0.668,-1.861 -1.667,-5.036 -2.14,-6.8 -0.717,-2.672 -0.977,-2.789 -6.437,-2.895 -2.687,-0.052 -5.291,0.077 -5.786,0.287 m 44.389,0.231 -0.889,0.622 v 16.555 16.555 l 0.889,0.622 c 1.157,0.81 19.435,0.939 20.231,0.143 0.271,-0.271 0.48,-1.57 0.48,-2.986 0,-3.253 -0.169,-3.334 -6.96,-3.334 -6.342,0 -6.24,0.07 -6.24,-4.294 0,-3.689 0.027,-3.706 5.857,-3.706 6.104,0 7.731,-1.77 5.533,-6.02 l -0.611,-1.18 h -4.909 c -5.829,0 -5.87,-0.025 -5.87,-3.637 0,-3.296 -0.285,-3.163 6.784,-3.163 6.457,0 6.515,-0.032 6.337,-3.456 -0.172,-3.314 -0.23,-3.331 -10.932,-3.338 -7.334,-0.005 -8.96,0.098 -9.7,0.617 M 138,182.516 c -0.872,0.439 -1.016,0.807 -1.123,2.883 -0.16,3.114 0.234,3.399 4.699,3.406 1.883,0.003 3.829,0.114 4.324,0.247 l 0.9,0.241 v 13.492 c 0,15.584 -0.192,14.815 3.705,14.815 1.234,0 2.702,-0.175 3.264,-0.388 l 1.021,-0.388 0.105,-13.912 L 155,189 l 4.177,-0.115 c 4.987,-0.137 5.223,-0.285 5.223,-3.272 0,-3.751 0.51,-3.614 -13.431,-3.607 -8.82,0.004 -12.232,0.138 -12.969,0.51 m 35.801,0.521 c -0.529,0.57 -1.264,1.965 -1.634,3.1 -0.37,1.135 -0.811,2.243 -0.981,2.463 -0.169,0.22 -0.522,1.21 -0.784,2.2 -0.262,0.99 -0.719,2.073 -1.016,2.406 -0.297,0.333 -0.707,1.349 -0.911,2.258 -0.204,0.909 -0.665,2.071 -1.023,2.583 -0.359,0.512 -0.652,1.262 -0.652,1.667 0,0.649 -0.713,2.429 -2.6,6.486 -0.307,0.66 -0.779,2.01 -1.048,3 -0.27,0.99 -0.706,2.07 -0.97,2.4 -1.068,1.334 -1.561,4.88 -0.761,5.465 1.98,1.447 7,0.458 7.771,-1.531 0.285,-0.734 0.948,-2.279 1.475,-3.434 l 0.956,-2.1 6.089,0.006 c 3.348,0.003 6.268,0.138 6.488,0.3 0.585,0.43 1.7,2.849 2.179,4.729 0.529,2.076 1.552,2.565 5.36,2.565 3.759,0 5.007,-1.451 3.248,-3.776 -0.323,-0.428 -0.589,-1.058 -0.591,-1.4 -0.002,-0.343 -0.446,-1.524 -0.987,-2.624 -0.541,-1.1 -0.99,-2.36 -0.998,-2.8 -0.008,-0.44 -0.373,-1.389 -0.812,-2.11 -0.44,-0.72 -0.801,-1.53 -0.803,-1.8 -0.002,-0.269 -0.446,-1.39 -0.987,-2.49 -0.541,-1.1 -0.991,-2.36 -0.999,-2.8 -0.008,-0.44 -0.373,-1.34 -0.81,-2 -0.437,-0.66 -0.798,-1.47 -0.801,-1.8 -0.003,-0.33 -0.449,-1.5 -0.99,-2.6 -0.541,-1.1 -0.99,-2.245 -0.996,-2.546 -0.007,-0.3 -0.359,-1.2 -0.783,-2 -0.423,-0.799 -0.876,-1.946 -1.006,-2.547 -0.533,-2.47 -7.641,-3.409 -9.623,-1.27 m 25.699,-0.605 c -0.889,0.518 -1.1,33.808 -0.22,34.688 0.646,0.646 5.966,0.63 6.837,-0.02 0.563,-0.42 0.687,-1.423 0.776,-6.3 L 207,205 l 3.335,-0.276 c 5.965,-0.495 11.485,-3.922 12.217,-7.586 0.465,-2.323 0.261,-7.296 -0.342,-8.338 -0.318,-0.55 -0.702,-1.27 -0.853,-1.6 -0.484,-1.059 -2.288,-2.8 -2.9,-2.8 -0.327,0 -0.942,-0.315 -1.367,-0.7 -1.546,-1.4 -15.622,-2.414 -17.59,-1.268 m 34.858,0.014 c -1.008,0.369 -1.958,1.801 -1.958,2.95 0,0.307 -0.347,1.154 -0.771,1.881 -0.424,0.728 -0.894,1.998 -1.044,2.823 -0.151,0.825 -0.427,1.5 -0.614,1.5 -0.187,0 -0.542,0.765 -0.788,1.7 -0.247,0.935 -0.689,2.076 -0.983,2.536 -0.294,0.46 -0.746,1.63 -1.005,2.6 -0.258,0.97 -0.699,2.034 -0.979,2.364 -0.28,0.33 -0.632,1.405 -0.782,2.39 -0.15,0.984 -0.55,2.096 -0.889,2.47 -0.339,0.375 -0.763,1.28 -0.943,2.011 -0.343,1.398 -1.692,4.845 -2.741,7.009 -1.011,2.084 0.055,2.923 3.701,2.911 3.523,-0.011 4.456,-0.628 5.198,-3.438 1.012,-3.837 1.579,-4.153 7.462,-4.153 6.88,0 7.494,0.147 7.817,1.868 0.142,0.754 0.468,1.587 0.724,1.852 0.257,0.264 0.738,1.2 1.068,2.08 l 0.6,1.6 3.409,0.114 c 3.796,0.128 5.266,-0.593 4.445,-2.181 -0.209,-0.403 -0.498,-1.39 -0.643,-2.193 -0.145,-0.803 -0.528,-1.68 -0.853,-1.949 -0.324,-0.269 -0.589,-0.925 -0.589,-1.458 0,-0.533 -0.45,-1.815 -1,-2.848 -0.55,-1.033 -1,-2.285 -1,-2.782 0,-0.497 -0.333,-1.236 -0.739,-1.642 -0.407,-0.407 -0.863,-1.513 -1.014,-2.458 -0.151,-0.945 -0.629,-2.216 -1.061,-2.823 -0.432,-0.607 -0.786,-1.377 -0.786,-1.712 0,-0.667 -2.301,-6.627 -2.806,-7.268 -0.174,-0.22 -0.529,-1.21 -0.79,-2.2 -0.965,-3.667 -5.144,-5.207 -9.646,-3.554 m 53.15,-0.172 c -1.383,0.363 -1.558,2.646 -1.431,18.659 0.142,17.977 -0.199,16.667 4.337,16.667 3.845,0 3.986,-0.229 3.986,-6.499 0,-2.769 0.109,-5.32 0.243,-5.668 0.256,-0.667 1.757,-0.895 1.757,-0.267 0,0.346 0.959,1.606 2.479,3.255 0.373,0.405 0.963,1.286 1.31,1.958 0.347,0.671 0.768,1.221 0.935,1.221 0.167,0 0.613,0.525 0.992,1.166 0.379,0.641 1.491,1.991 2.471,3 l 1.783,1.834 3.715,-0.013 c 4.957,-0.017 6.07,-0.782 4.215,-2.896 -1.869,-2.129 -2.804,-3.289 -4.956,-6.148 -1.218,-1.618 -2.379,-2.943 -2.579,-2.943 -0.201,0 -0.365,-0.201 -0.365,-0.446 0,-0.245 -0.9,-1.484 -2,-2.754 -3.103,-3.582 -3.08,-3.664 2.8,-9.998 0.55,-0.593 1.72,-1.941 2.6,-2.997 0.88,-1.056 1.872,-2.211 2.205,-2.568 3.375,-3.613 2.798,-4.837 -2.28,-4.837 h -3.43 l -1.65,1.7 c -0.907,0.935 -2.278,2.487 -3.047,3.449 -0.769,0.961 -1.803,2.119 -2.298,2.572 -0.495,0.453 -0.9,0.946 -0.9,1.095 0,0.15 -0.599,0.907 -1.331,1.683 -2.267,2.404 -2.738,1.653 -2.628,-4.196 0.114,-6.124 -1.434,-7.47 -6.933,-6.029 m -6.926,1.077 c 0.791,0.519 1.018,1.002 1.018,2.169 0,2.932 -1.719,3.834 -4.545,2.386 -3.362,-1.723 -10.514,1.105 -12.803,5.063 -2.042,3.53 -2.202,11.089 -0.285,13.439 0.348,0.427 0.952,1.224 1.342,1.771 2.154,3.023 6.5,4.252 12.393,3.506 4.764,-0.604 6.261,4.066 1.647,5.137 -6.486,1.504 -15.25,-0.292 -19.155,-3.927 -7.822,-7.282 -5.597,-24.021 3.801,-28.594 4.039,-1.965 14.153,-2.544 16.587,-0.95 m -201.885,-0.3 c 0.641,0.172 1.016,0.713 1.314,1.895 0.698,2.765 2.525,8.392 3.071,9.454 0.282,0.55 0.514,1.398 0.516,1.885 0.001,0.487 0.35,1.837 0.776,3 0.426,1.163 0.965,2.851 1.198,3.751 0.395,1.521 2.194,4.159 2.557,3.747 0.162,-0.185 2.015,-6.144 2.481,-7.983 0.14,-0.55 0.588,-1.9 0.997,-3 1.068,-2.874 2.797,-8.694 2.795,-9.407 -0.001,-0.334 0.454,-1.279 1.012,-2.1 l 1.015,-1.493 h 4.705 c 6.266,0 5.666,-1.742 5.666,16.454 0,18.173 0.113,17.546 -3.162,17.546 -3.77,0 -3.632,0.44 -3.678,-11.729 -0.022,-5.759 -0.162,-10.908 -0.311,-11.441 -0.3,-1.075 -1.249,-1.626 -1.249,-0.725 0,0.314 -0.365,1.634 -0.811,2.933 -0.735,2.14 -1.85,5.646 -3.36,10.562 -0.971,3.162 -2.947,8.699 -3.418,9.58 -0.414,0.773 -0.741,0.842 -3.492,0.736 -3.473,-0.133 -3.193,0.147 -4.711,-4.716 -0.583,-1.87 -1.307,-4.03 -1.607,-4.8 -0.3,-0.77 -1.121,-3.38 -1.824,-5.8 -0.703,-2.42 -1.592,-4.94 -1.976,-5.6 -0.384,-0.66 -0.815,-1.695 -0.957,-2.3 -0.314,-1.332 -0.864,-1.425 -1.192,-0.2 -0.133,0.495 -0.244,5.769 -0.247,11.72 -0.006,12.14 0.083,11.78 -2.911,11.78 -3.778,0 -3.494,1.381 -3.494,-16.994 0,-14.974 0.052,-16.196 0.7,-16.574 0.753,-0.439 8.117,-0.577 9.597,-0.181 m 53.659,0.403 c 0.792,0.555 0.902,0.898 0.721,2.249 -0.321,2.39 -0.555,2.486 -6.396,2.606 -7.611,0.156 -7.082,-0.128 -7.075,3.799 0.009,4.623 -0.214,4.457 6.279,4.692 l 5.515,0.2 0.128,1.562 c 0.28,3.428 0.266,3.438 -5.11,3.438 -6.963,0 -6.818,-0.102 -6.818,4.8 0,4.916 -0.171,4.8 7.052,4.8 5.91,0 6.548,0.232 6.548,2.386 0,2.777 -0.133,2.814 -10.2,2.814 -7.597,0 -9.037,-0.095 -9.571,-0.629 -1.014,-1.013 -0.946,-32.347 0.071,-32.939 1.279,-0.745 17.753,-0.551 18.856,0.222 m 31.267,0.188 c 0.486,0.908 0.187,3.418 -0.508,4.258 -0.278,0.337 -1.674,0.5 -4.284,0.5 -5.266,0 -4.831,-1.303 -4.831,14.462 v 13.502 l -1.309,0.245 c -0.72,0.135 -2.115,0.189 -3.1,0.118 L 147.8,216.6 147.695,203.034 c -0.123,-15.814 0.242,-14.634 -4.525,-14.634 -4.817,0 -5.57,-0.385 -5.57,-2.844 0,-2.771 -0.201,-2.73 13.486,-2.744 11.884,-0.012 12.093,0.002 12.537,0.83 m 18.302,-0.026 c 0.481,0.448 0.875,0.999 0.875,1.224 0,0.225 0.422,1.343 0.938,2.485 0.516,1.141 1.43,3.425 2.031,5.075 0.602,1.65 1.417,3.63 1.812,4.4 0.395,0.77 0.854,2.03 1.019,2.8 0.165,0.77 0.628,2.03 1.028,2.8 0.4,0.77 1.176,2.57 1.724,4 0.549,1.43 1.473,3.835 2.054,5.346 1.79,4.652 1.728,4.832 -1.707,4.972 -3.443,0.139 -4.615,-0.656 -5.087,-3.448 -0.165,-0.977 -0.743,-2.154 -1.407,-2.864 l -1.126,-1.206 -6.139,0.006 c -7.411,0.008 -6.943,-0.278 -9.295,5.67 -0.655,1.655 -1.82,2.082 -5.051,1.851 -2.689,-0.191 -2.713,-0.032 1.607,-10.727 0.844,-2.09 1.755,-4.52 2.025,-5.4 0.269,-0.88 0.62,-1.69 0.779,-1.8 0.159,-0.11 0.585,-1.226 0.947,-2.48 0.362,-1.253 0.836,-2.389 1.053,-2.523 0.217,-0.134 0.395,-0.556 0.395,-0.936 0,-0.381 0.364,-1.405 0.81,-2.276 0.445,-0.872 0.999,-2.285 1.23,-3.141 0.232,-0.856 0.86,-2.251 1.396,-3.1 l 0.974,-1.544 h 3.12 c 2.586,0 3.269,0.139 3.995,0.816 M 216,184 c 7.112,3.014 8.607,10.687 3.221,16.531 -1.776,1.927 -3.991,2.7 -9.421,3.287 -3.41,0.368 -3.394,0.34 -3.44,5.931 -0.057,6.982 0.02,6.826 -3.48,6.969 -2.789,0.113 -2.9,0.082 -3.283,-0.926 -0.769,-2.023 -0.513,-31.619 0.281,-32.413 1.119,-1.119 13.106,-0.658 16.122,0.621 m 26.11,-0.03 c 0.574,0.644 1.23,1.859 1.458,2.7 0.227,0.842 1.063,3.06 1.857,4.93 0.794,1.87 1.627,4.03 1.851,4.8 0.224,0.77 0.55,1.58 0.724,1.8 0.175,0.22 0.547,1.21 0.828,2.2 0.28,0.99 0.732,2.07 1.004,2.4 0.271,0.33 0.708,1.41 0.971,2.4 0.262,0.99 0.705,2.25 0.984,2.8 1.389,2.734 2.35,5.561 2.38,7 l 0.033,1.6 h -3.156 c -2.401,0 -3.232,-0.144 -3.469,-0.6 -0.172,-0.33 -0.822,-1.835 -1.444,-3.344 -1.411,-3.424 -1.491,-3.456 -8.721,-3.456 h -5.739 l -0.986,1.171 c -0.542,0.645 -1.112,1.86 -1.266,2.7 -0.466,2.532 -1.944,3.73 -4.594,3.723 -3.526,-0.01 -3.971,-1.409 -1.78,-5.594 0.608,-1.161 2.255,-5.481 2.973,-7.8 0.273,-0.88 0.74,-1.955 1.039,-2.389 0.299,-0.434 0.543,-1.028 0.543,-1.319 0,-0.292 0.347,-1.25 0.772,-2.128 0.425,-0.879 0.892,-2.176 1.039,-2.881 0.147,-0.706 0.517,-1.677 0.822,-2.16 0.54,-0.853 0.971,-1.937 2.61,-6.57 1.221,-3.453 6.879,-4.663 9.267,-1.983 m 51.03,-0.643 c 0.259,0.313 0.483,2.875 0.549,6.295 0.139,7.239 0.524,7.534 4.102,3.148 3.154,-3.867 5.033,-6.052 6.779,-7.885 l 2.014,-2.115 2.966,0.115 c 3.424,0.133 4.56,0.967 3.049,2.24 -0.441,0.371 -2.241,2.385 -4,4.475 -1.76,2.09 -3.739,4.356 -4.399,5.035 -3.979,4.096 -4.046,3.822 3.088,12.565 8.453,10.359 8.317,9.749 2.128,9.519 l -3.181,-0.119 -2.364,-2.8 c -1.3,-1.54 -2.748,-3.368 -3.217,-4.063 -3.445,-5.094 -5.679,-7.339 -6.684,-6.718 -0.203,0.125 -0.37,3.062 -0.37,6.525 0,7.248 -0.005,7.259 -3.18,7.25 -3.695,-0.01 -3.42,1.342 -3.42,-16.812 0,-15.423 0.03,-16.069 0.776,-16.614 0.991,-0.724 4.773,-0.753 5.364,-0.041 m -86.606,5.573 c -0.616,0.984 -0.138,8.853 0.571,9.4 0.942,0.727 2.534,0.615 4.668,-0.329 5.688,-2.516 3.961,-9.571 -2.344,-9.571 -1.632,0 -2.697,0.184 -2.895,0.5 m 6.589,1.521 c 2.871,3.159 0.647,7.179 -3.971,7.179 -2.092,0 -2.352,-0.509 -2.352,-4.613 0,-4.332 -0.017,-4.308 2.835,-4.105 1.941,0.139 2.4,0.341 3.488,1.539 m 23.543,2.647 c -0.322,1.063 -0.872,2.472 -1.223,3.132 -0.351,0.66 -0.639,1.402 -0.641,1.649 -0.001,0.247 -0.355,1.246 -0.785,2.22 -1.432,3.237 -0.693,3.916 4.274,3.926 4.194,0.007 4.615,-0.712 2.959,-5.059 -0.658,-1.725 -1.433,-3.927 -1.723,-4.895 -0.88,-2.937 -2.138,-3.365 -2.861,-0.973 m -59.205,-0.962 c -0.38,0.278 -1.226,2.123 -1.879,4.1 -0.653,1.977 -1.355,4.102 -1.561,4.723 -0.777,2.349 0.067,3.057 3.653,3.065 4.076,0.009 5.853,-1.091 4.513,-2.794 -0.26,-0.33 -0.659,-1.32 -0.886,-2.2 -0.227,-0.88 -0.728,-2.5 -1.112,-3.6 -1.496,-4.287 -1.449,-4.229 -2.728,-3.294 m 61.085,1.816 c 0.58,0.836 1.054,1.968 1.054,2.515 0,0.547 0.353,1.686 0.784,2.531 0.756,1.483 0.96,2.271 0.862,3.332 -0.032,0.348 -0.902,0.5 -2.872,0.5 -3.073,0 -4.691,-0.536 -4.029,-1.333 0.217,-0.263 0.612,-1.338 0.877,-2.389 0.265,-1.052 0.818,-2.572 1.23,-3.379 0.411,-0.808 0.748,-1.88 0.748,-2.384 0,-1.222 0.114,-1.17 1.346,0.607 m -58.322,3.834 c 0.317,0.452 0.579,1.277 0.582,1.833 0.003,0.556 0.173,1.275 0.377,1.598 0.711,1.123 -0.333,1.613 -3.432,1.613 -2.071,0 -2.964,-0.149 -2.995,-0.5 -0.111,-1.255 0.167,-2.465 0.834,-3.633 0.399,-0.697 0.841,-2.098 0.984,-3.113 0.417,-2.969 1.849,-3.324 2.55,-0.632 0.288,1.106 0.783,2.381 1.1,2.834 M 334.473,224.6 c -0.654,0.55 -1.29,1 -1.413,1 -0.124,0 -0.998,0.718 -1.943,1.595 -0.944,0.877 -1.897,1.6 -2.117,1.605 -0.372,0.01 -0.809,0.321 -3.758,2.674 -0.603,0.481 -1.581,0.996 -2.174,1.145 -0.593,0.149 -1.211,0.493 -1.373,0.765 -0.305,0.512 -1.492,1.212 -4.351,2.566 -0.911,0.431 -1.776,0.979 -1.924,1.217 -0.147,0.238 -0.582,0.433 -0.966,0.433 -0.384,0 -1.309,0.45 -2.054,1 -0.745,0.55 -1.701,1 -2.123,1 -0.423,0 -1.423,0.346 -2.223,0.769 -2.518,1.331 -5.983,2.831 -6.54,2.831 -0.295,0 -0.891,0.246 -1.325,0.547 -0.434,0.301 -1.824,0.846 -3.089,1.211 -1.265,0.365 -2.3,0.828 -2.3,1.029 0,0.2 -0.855,0.485 -1.9,0.633 -1.045,0.148 -2.626,0.581 -3.514,0.964 -0.887,0.382 -2.247,0.813 -3.022,0.959 -0.775,0.145 -2.112,0.623 -2.971,1.061 -0.859,0.438 -2.041,0.796 -2.625,0.796 -0.585,0 -2.122,0.337 -3.416,0.75 -1.294,0.412 -3.162,0.879 -4.152,1.038 -0.99,0.159 -2.16,0.516 -2.6,0.793 -0.44,0.277 -1.865,0.636 -3.166,0.798 -1.301,0.162 -3.641,0.618 -5.2,1.014 -1.559,0.395 -3.888,0.832 -5.176,0.971 -1.288,0.139 -2.677,0.432 -3.086,0.651 -0.41,0.219 -2.236,0.58 -4.058,0.801 -1.823,0.222 -4.844,0.669 -6.714,0.994 -1.87,0.324 -5.74,0.858 -8.6,1.185 -2.86,0.327 -6.37,0.77 -7.8,0.984 -11.844,1.771 -51.042,2.413 -68.179,1.116 -5.049,-0.382 -10.651,-0.695 -12.45,-0.695 -1.799,0 -3.968,-0.243 -4.821,-0.54 -0.852,-0.298 -4.43,-0.773 -7.95,-1.058 -3.52,-0.284 -6.792,-0.661 -7.271,-0.838 -0.478,-0.177 -2.818,-0.527 -5.2,-0.777 -2.381,-0.25 -4.978,-0.697 -5.771,-0.994 -0.793,-0.297 -2.593,-0.66 -4,-0.807 -1.407,-0.147 -3.908,-0.596 -5.558,-0.997 -1.65,-0.402 -4.061,-0.857 -5.357,-1.013 -1.296,-0.155 -2.826,-0.527 -3.4,-0.827 -0.574,-0.299 -1.454,-0.545 -1.956,-0.547 -0.502,-10e-4 -1.942,-0.349 -3.202,-0.773 -1.259,-0.424 -3.548,-0.986 -5.087,-1.248 -1.539,-0.262 -3.068,-0.703 -3.398,-0.98 -0.33,-0.277 -1.496,-0.632 -2.591,-0.79 -1.094,-0.158 -2.662,-0.63 -3.484,-1.049 -0.821,-0.419 -1.962,-0.762 -2.535,-0.762 -0.573,0 -2.025,-0.45 -3.227,-1 -1.203,-0.55 -2.591,-1 -3.086,-1 -0.494,0 -1.271,-0.26 -1.725,-0.578 -0.454,-0.318 -1.658,-0.788 -2.677,-1.045 -1.018,-0.256 -2.058,-0.716 -2.312,-1.021 -0.253,-0.306 -0.807,-0.556 -1.23,-0.556 -0.423,0 -1.615,-0.45 -2.648,-1 -1.033,-0.55 -2.158,-1 -2.499,-1 -0.341,0 -2.924,-1.17 -5.74,-2.6 -2.816,-1.43 -5.346,-2.6 -5.621,-2.6 -0.276,0 -0.808,-0.339 -1.183,-0.754 -0.376,-0.415 -1.239,-0.865 -1.919,-1.001 -0.68,-0.136 -1.45,-0.539 -1.71,-0.895 -0.32,-0.437 -0.757,-0.558 -1.343,-0.372 -1.155,0.366 -1.101,0.954 0.13,1.422 0.55,0.209 1,0.61 1,0.89 0,0.589 2.032,2.292 3.867,3.241 0.693,0.359 1.322,0.791 1.397,0.961 0.199,0.451 2.42,1.953 3.982,2.694 0.745,0.353 2.074,1.085 2.954,1.625 0.88,0.541 2.203,1.265 2.941,1.609 0.737,0.344 1.547,0.796 1.8,1.005 0.875,0.723 5.143,2.775 5.8,2.787 0.362,0.007 1.379,0.456 2.259,0.998 0.88,0.542 2.005,0.987 2.5,0.988 0.495,10e-4 0.9,0.175 0.9,0.387 0,0.211 0.877,0.644 1.949,0.963 1.072,0.318 2.503,0.865 3.18,1.215 0.677,0.35 1.555,0.643 1.951,0.65 0.396,0.006 1.62,0.455 2.72,0.996 1.1,0.541 2.367,0.985 2.815,0.987 0.449,0.002 1.501,0.353 2.338,0.78 0.837,0.427 2.533,0.902 3.77,1.057 1.236,0.154 2.481,0.514 2.767,0.8 0.286,0.286 1.372,0.631 2.415,0.767 1.042,0.137 2.345,0.437 2.895,0.667 1.606,0.672 5.147,1.533 6.32,1.535 0.594,0.002 1.55,0.248 2.124,0.548 0.575,0.3 2.256,0.675 3.737,0.833 1.481,0.159 3.263,0.527 3.96,0.818 0.698,0.292 3.156,0.738 5.464,0.993 2.307,0.255 4.555,0.66 4.995,0.901 0.44,0.241 2.78,0.661 5.2,0.935 2.42,0.273 5.12,0.678 6,0.9 0.88,0.222 4.33,0.597 7.666,0.834 3.336,0.236 6.576,0.628 7.2,0.87 0.624,0.242 5.364,0.601 10.534,0.796 5.17,0.195 10.66,0.584 12.2,0.863 3.996,0.724 58.313,0.729 61.2,0.006 1.1,-0.276 5.6,-0.666 10,-0.868 4.4,-0.202 8.509,-0.562 9.132,-0.801 0.622,-0.239 3.682,-0.615 6.8,-0.836 6.909,-0.489 9.543,-0.804 10.068,-1.207 0.22,-0.168 2.02,-0.435 4,-0.593 1.98,-0.158 4.219,-0.541 4.975,-0.852 0.757,-0.31 2.951,-0.727 4.877,-0.926 1.925,-0.2 3.852,-0.551 4.282,-0.781 0.43,-0.23 2.378,-0.676 4.328,-0.992 1.951,-0.315 3.995,-0.756 4.543,-0.978 0.547,-0.223 2.165,-0.616 3.595,-0.873 1.43,-0.257 2.805,-0.636 3.056,-0.842 0.25,-0.206 1.563,-0.569 2.917,-0.808 1.354,-0.238 2.684,-0.657 2.957,-0.929 0.273,-0.273 1.39,-0.628 2.483,-0.79 1.093,-0.161 2.527,-0.614 3.187,-1.007 0.66,-0.393 1.95,-0.827 2.866,-0.964 0.917,-0.138 2.177,-0.518 2.8,-0.844 0.624,-0.327 2.484,-1.143 4.134,-1.813 1.65,-0.671 3.54,-1.472 4.2,-1.78 0.66,-0.308 1.65,-0.687 2.2,-0.843 0.55,-0.155 1.429,-0.617 1.954,-1.027 0.525,-0.41 1.184,-0.745 1.466,-0.745 0.282,0 1.653,-0.632 3.046,-1.405 1.394,-0.773 3.164,-1.693 3.934,-2.043 0.77,-0.351 1.544,-0.889 1.72,-1.195 0.176,-0.306 0.519,-0.557 0.762,-0.557 0.243,0 1.032,-0.45 1.754,-1 0.721,-0.55 1.549,-1 1.841,-1 0.292,0 0.755,-0.36 1.03,-0.8 0.275,-0.44 0.75,-0.8 1.055,-0.8 1.896,0 2.984,-2.605 2.79,-6.679 -0.422,-8.852 -0.111,-8.521 -8.01,-8.521 -5.476,0 -5.723,0.036 -6.869,1 m 13.298,0.692 c 0.301,0.412 0.614,2.682 0.771,5.6 l 0.266,4.908 -2.304,2.099 c -1.267,1.155 -2.508,2.1 -2.757,2.1 -0.25,0.001 -1.6,0.772 -3,1.715 -1.401,0.943 -3.717,2.308 -5.147,3.032 -1.43,0.724 -2.87,1.479 -3.2,1.677 -0.33,0.198 -1.86,0.91 -3.4,1.583 -1.54,0.674 -3.466,1.577 -4.279,2.009 -0.814,0.432 -1.804,0.786 -2.2,0.786 -0.397,0.001 -1.31,0.361 -2.031,0.8 -0.72,0.44 -1.533,0.799 -1.806,0.799 -0.273,0 -1.128,0.339 -1.901,0.753 -0.773,0.414 -2.432,0.967 -3.687,1.227 -1.255,0.261 -2.375,0.624 -2.488,0.807 -0.113,0.183 -1.151,0.554 -2.307,0.826 -1.155,0.271 -2.454,0.676 -2.886,0.9 -0.71,0.367 -2.178,0.749 -9.471,2.463 -1.242,0.292 -3.132,0.815 -4.2,1.163 -1.069,0.347 -2.934,0.749 -4.144,0.892 -1.21,0.144 -3.456,0.6 -4.992,1.015 -1.536,0.415 -3.324,0.754 -3.974,0.754 -0.65,0 -2.183,0.273 -3.408,0.607 -2.64,0.721 -12.44,2.11 -18.626,2.641 -2.42,0.208 -6.83,0.725 -9.8,1.149 -16.426,2.345 -78.004,2.345 -96.4,0 -3.19,-0.407 -7.33,-0.85 -9.2,-0.986 -1.87,-0.135 -4.93,-0.509 -6.8,-0.831 -1.87,-0.322 -5.148,-0.749 -7.284,-0.951 -2.136,-0.201 -4.476,-0.554 -5.2,-0.785 -0.724,-0.231 -2.936,-0.689 -4.916,-1.017 -8.012,-1.327 -12.853,-2.252 -13.805,-2.638 -0.552,-0.224 -1.902,-0.566 -3,-0.76 -3.277,-0.58 -9.11,-2.056 -10.395,-2.63 -0.66,-0.296 -2.19,-0.759 -3.4,-1.031 -1.21,-0.272 -2.779,-0.736 -3.487,-1.031 -0.708,-0.295 -1.698,-0.543 -2.2,-0.55 -0.502,-0.006 -1.813,-0.455 -2.913,-0.996 -1.1,-0.541 -2.232,-0.985 -2.516,-0.987 C 75,252.402 74.062,252.04 73.2,251.6 c -0.862,-0.44 -1.871,-0.8 -2.24,-0.8 -0.37,0 -1.412,-0.347 -2.316,-0.772 -3.429,-1.61 -6.203,-2.828 -6.441,-2.828 -0.442,0 -8.357,-4.06 -10.203,-5.233 -0.99,-0.63 -2.475,-1.44 -3.3,-1.799 -0.825,-0.36 -1.5,-0.774 -1.5,-0.92 0,-0.147 -0.63,-0.605 -1.4,-1.02 -0.77,-0.415 -1.4,-0.996 -1.4,-1.291 0,-0.295 -0.236,-0.537 -0.524,-0.537 -1.163,0 -2.086,-1.052 -1.14,-1.299 0.519,-0.136 1.235,0.075 1.822,0.538 0.533,0.418 1.221,0.761 1.53,0.761 0.31,0 2.15,0.81 4.09,1.8 1.94,0.99 3.751,1.8 4.025,1.8 0.273,0 1.915,0.65 3.647,1.445 3.169,1.454 4.312,1.895 10.55,4.077 6.518,2.28 11.865,3.938 16.4,5.088 1.21,0.306 4.573,1.189 7.473,1.962 2.9,0.772 6.486,1.598 7.968,1.835 1.483,0.236 2.89,0.555 3.127,0.708 0.505,0.326 9.572,1.963 13.632,2.462 1.54,0.189 3.88,0.621 5.2,0.959 1.32,0.338 3.75,0.73 5.4,0.871 1.65,0.142 5.79,0.598 9.2,1.014 3.41,0.417 8.63,0.937 11.6,1.157 2.97,0.219 7.2,0.617 9.4,0.884 6.7,0.814 49.429,0.673 56,-0.183 2.86,-0.373 7.858,-0.858 11.106,-1.078 3.249,-0.22 6.669,-0.568 7.6,-0.772 0.932,-0.204 3.854,-0.574 6.494,-0.82 2.64,-0.247 5.34,-0.619 6,-0.826 0.66,-0.207 3,-0.653 5.2,-0.991 6.711,-1.031 13.938,-2.427 15.126,-2.923 0.619,-0.258 1.525,-0.469 2.013,-0.469 0.488,0 1.871,-0.281 3.074,-0.625 1.203,-0.343 3.395,-0.878 4.872,-1.188 1.476,-0.31 3.295,-0.818 4.041,-1.13 0.745,-0.312 2.138,-0.699 3.095,-0.861 0.957,-0.161 2.529,-0.632 3.493,-1.045 0.964,-0.413 2.017,-0.751 2.341,-0.751 0.324,0 1.344,-0.344 2.267,-0.764 0.923,-0.42 2.398,-0.89 3.278,-1.045 0.88,-0.154 1.999,-0.531 2.486,-0.836 0.487,-0.305 1.115,-0.555 1.394,-0.555 0.28,0 1.411,-0.429 2.514,-0.953 1.103,-0.524 3.356,-1.458 5.006,-2.075 1.65,-0.616 3.27,-1.34 3.6,-1.607 0.33,-0.267 1.367,-0.713 2.305,-0.99 0.937,-0.278 1.904,-0.745 2.149,-1.04 0.244,-0.294 0.701,-0.535 1.016,-0.535 0.315,0 1.235,-0.45 2.044,-1 0.809,-0.55 1.762,-1 2.117,-1 0.355,0 0.971,-0.36 1.369,-0.8 0.398,-0.44 0.888,-0.8 1.089,-0.8 0.2,0 0.954,-0.45 1.675,-1 0.722,-0.55 1.476,-1 1.676,-1 0.319,0 3.24,-2.052 9.285,-6.524 2.381,-1.762 2.792,-1.845 8.607,-1.755 4.347,0.067 5.21,0.185 5.639,0.771"
       stroke="none"
       fill="#9db2e1"
       fill-rule="evenodd" />
    <path
       id="path4"
       d="m 268,182.919 c -9.394,2.151 -14.327,11.545 -11.951,22.761 1.805,8.524 12.513,13.644 23.3,11.142 4.614,-1.071 3.117,-5.741 -1.647,-5.137 -5.893,0.746 -10.239,-0.483 -12.393,-3.506 -0.39,-0.547 -0.994,-1.344 -1.342,-1.771 -1.917,-2.35 -1.757,-9.909 0.285,-13.439 2.289,-3.958 9.441,-6.786 12.803,-5.063 2.826,1.448 4.545,0.546 4.545,-2.386 0,-2.339 -1.061,-2.808 -6.718,-2.97 -2.832,-0.082 -5.552,0.064 -6.882,0.369 m -198.9,0.313 c -0.648,0.378 -0.7,1.6 -0.7,16.574 0,18.375 -0.284,16.994 3.494,16.994 2.994,0 2.905,0.36 2.911,-11.78 0.003,-5.951 0.114,-11.225 0.247,-11.72 0.328,-1.225 0.878,-1.132 1.192,0.2 0.142,0.605 0.573,1.64 0.957,2.3 0.384,0.66 1.273,3.18 1.976,5.6 0.703,2.42 1.524,5.03 1.824,5.8 0.3,0.77 1.024,2.93 1.607,4.8 1.518,4.863 1.238,4.583 4.711,4.716 2.751,0.106 3.078,0.037 3.492,-0.736 0.471,-0.881 2.447,-6.418 3.418,-9.58 1.51,-4.916 2.625,-8.422 3.36,-10.562 0.446,-1.299 0.811,-2.619 0.811,-2.933 0,-0.901 0.949,-0.35 1.249,0.725 0.149,0.533 0.289,5.682 0.311,11.441 0.046,12.169 -0.092,11.729 3.678,11.729 3.275,0 3.162,0.627 3.162,-17.546 0,-18.196 0.6,-16.454 -5.666,-16.454 h -4.705 l -1.015,1.493 c -0.558,0.821 -1.013,1.766 -1.012,2.1 0.002,0.713 -1.727,6.533 -2.795,9.407 -0.409,1.1 -0.857,2.45 -0.997,3 -0.466,1.839 -2.319,7.798 -2.481,7.983 -0.363,0.412 -2.162,-2.226 -2.557,-3.747 -0.233,-0.9 -0.772,-2.588 -1.198,-3.751 -0.426,-1.163 -0.775,-2.513 -0.776,-3 -0.002,-0.487 -0.234,-1.335 -0.516,-1.885 -0.546,-1.062 -2.373,-6.689 -3.071,-9.454 -0.298,-1.182 -0.673,-1.723 -1.314,-1.895 -1.48,-0.396 -8.844,-0.258 -9.597,0.181 m 44.4,0 c -1.017,0.592 -1.085,31.926 -0.071,32.939 0.534,0.534 1.974,0.629 9.571,0.629 10.067,0 10.2,-0.037 10.2,-2.814 0,-2.154 -0.638,-2.386 -6.548,-2.386 -7.223,0 -7.052,0.116 -7.052,-4.8 0,-4.902 -0.145,-4.8 6.818,-4.8 5.376,0 5.39,-0.01 5.11,-3.438 L 131.4,197 l -5.515,-0.2 c -6.493,-0.235 -6.27,-0.069 -6.279,-4.692 -0.007,-3.927 -0.536,-3.643 7.075,-3.799 5.841,-0.12 6.075,-0.216 6.396,-2.606 0.369,-2.752 -0.176,-2.905 -10.266,-2.891 -5.101,0.007 -8.896,0.179 -9.311,0.42 m 24.8,0 c -0.512,0.299 -0.7,0.921 -0.7,2.324 0,2.459 0.753,2.844 5.57,2.844 4.767,0 4.402,-1.18 4.525,14.634 l 0.105,13.566 1.791,0.127 c 0.985,0.071 2.38,0.017 3.1,-0.118 L 154,216.364 v -13.502 c 0,-15.765 -0.435,-14.462 4.831,-14.462 4.269,0 4.535,-0.131 4.97,-2.458 0.603,-3.227 0.94,-3.144 -12.715,-3.13 -7.462,0.008 -12.354,0.168 -12.786,0.42 m 35.536,1.112 c -0.536,0.849 -1.164,2.244 -1.396,3.1 -0.231,0.856 -0.785,2.269 -1.23,3.141 -0.446,0.871 -0.81,1.895 -0.81,2.276 0,0.38 -0.178,0.802 -0.395,0.936 -0.217,0.134 -0.691,1.27 -1.053,2.523 -0.362,1.254 -0.788,2.37 -0.947,2.48 -0.159,0.11 -0.51,0.92 -0.779,1.8 -0.27,0.88 -1.181,3.31 -2.025,5.4 -4.32,10.695 -4.296,10.536 -1.607,10.727 3.231,0.231 4.396,-0.196 5.051,-1.851 2.352,-5.948 1.884,-5.662 9.295,-5.67 l 6.139,-0.006 1.126,1.206 c 0.664,0.71 1.242,1.887 1.407,2.864 0.472,2.792 1.644,3.587 5.087,3.448 3.435,-0.14 3.497,-0.32 1.707,-4.972 -0.581,-1.511 -1.505,-3.916 -2.054,-5.346 -0.548,-1.43 -1.324,-3.23 -1.724,-4 -0.4,-0.77 -0.863,-2.03 -1.028,-2.8 -0.165,-0.77 -0.624,-2.03 -1.019,-2.8 -0.395,-0.77 -1.21,-2.75 -1.812,-4.4 -0.601,-1.65 -1.515,-3.934 -2.031,-5.075 -0.516,-1.142 -0.938,-2.26 -0.938,-2.485 0,-1.3 -1.766,-2.04 -4.87,-2.04 h -3.12 l -0.974,1.544 m 26.042,-0.965 c -0.794,0.794 -1.05,30.39 -0.281,32.413 0.383,1.008 0.494,1.039 3.283,0.926 3.5,-0.143 3.423,0.013 3.48,-6.969 0.046,-5.591 0.03,-5.563 3.44,-5.931 5.43,-0.587 7.645,-1.36 9.421,-3.287 5.386,-5.844 3.891,-13.517 -3.221,-16.531 -3.016,-1.279 -15.003,-1.74 -16.122,-0.621 m 34.641,-0.099 c -0.552,0.267 -1.178,1.264 -1.676,2.673 -1.639,4.633 -2.07,5.717 -2.61,6.57 -0.305,0.483 -0.675,1.454 -0.822,2.16 -0.147,0.705 -0.614,2.002 -1.039,2.881 -0.425,0.878 -0.772,1.836 -0.772,2.128 0,0.291 -0.244,0.885 -0.543,1.319 -0.299,0.434 -0.766,1.509 -1.039,2.389 -0.718,2.319 -2.365,6.639 -2.973,7.8 -2.191,4.185 -1.746,5.584 1.78,5.594 2.65,0.007 4.128,-1.191 4.594,-3.723 0.154,-0.84 0.724,-2.055 1.266,-2.7 l 0.986,-1.171 h 5.739 c 7.23,0 7.31,0.032 8.721,3.456 0.622,1.509 1.272,3.014 1.444,3.344 0.237,0.456 1.068,0.6 3.469,0.6 h 3.156 l -0.033,-1.6 c -0.03,-1.439 -0.991,-4.266 -2.38,-7 -0.279,-0.55 -0.722,-1.81 -0.984,-2.8 -0.263,-0.99 -0.7,-2.07 -0.971,-2.4 -0.272,-0.33 -0.724,-1.41 -1.004,-2.4 -0.281,-0.99 -0.653,-1.98 -0.828,-2.2 -0.174,-0.22 -0.5,-1.03 -0.724,-1.8 -0.224,-0.77 -1.057,-2.93 -1.851,-4.8 -0.794,-1.87 -1.63,-4.088 -1.857,-4.93 -0.944,-3.483 -5.401,-5.153 -9.049,-3.39 m 53.257,0.088 c -0.746,0.545 -0.776,1.191 -0.776,16.614 0,18.154 -0.275,16.802 3.42,16.812 3.175,0.009 3.18,-0.002 3.18,-7.25 0,-8.769 1.011,-8.741 7.054,0.193 0.469,0.695 1.917,2.523 3.217,4.063 l 2.364,2.8 3.181,0.119 c 6.189,0.23 6.325,0.84 -2.128,-9.519 -7.134,-8.743 -7.067,-8.469 -3.088,-12.565 0.66,-0.679 2.639,-2.945 4.399,-5.035 1.759,-2.09 3.559,-4.104 4,-4.475 1.511,-1.273 0.375,-2.107 -3.049,-2.24 l -2.966,-0.115 -2.014,2.115 c -1.746,1.833 -3.625,4.018 -6.779,7.885 -3.578,4.386 -3.963,4.091 -4.102,-3.148 -0.066,-3.42 -0.29,-5.982 -0.549,-6.295 -0.591,-0.712 -4.373,-0.683 -5.364,0.041 m -7.323,0.687 c 1.506,2.307 -0.248,4.459 -2.689,3.301 -7.325,-3.476 -18.153,5.967 -16.104,14.044 2.464,9.714 5.823,11.775 17.74,10.889 1.354,-0.1 1.89,1.648 1.01,3.293 -0.657,1.227 -11.611,1.242 -14.01,0.018 -0.862,-0.44 -1.836,-0.8 -2.163,-0.8 -1.273,0 -5.285,-3.882 -6.47,-6.259 -1.716,-3.442 -1.762,-13.072 -0.079,-16.541 2.097,-4.324 5.976,-7.465 10.366,-8.396 2.651,-0.562 11.959,-0.223 12.399,0.451 M 79.098,184.1 c 0.217,0.275 0.52,1.49 0.673,2.7 0.152,1.21 0.523,2.579 0.824,3.042 0.301,0.462 0.676,1.532 0.835,2.377 0.158,0.844 0.602,2.086 0.986,2.758 0.384,0.673 0.82,2.085 0.968,3.14 0.149,1.054 0.614,2.674 1.034,3.6 0.421,0.925 0.768,2.091 0.773,2.589 0.031,3.145 3.675,4.342 4.152,1.363 0.133,-0.834 0.515,-2.064 0.849,-2.733 0.334,-0.669 0.721,-2.098 0.861,-3.176 0.14,-1.078 0.49,-2.233 0.778,-2.566 0.288,-0.334 0.719,-1.477 0.957,-2.541 0.239,-1.064 0.674,-2.411 0.967,-2.994 0.293,-0.582 0.645,-1.918 0.782,-2.969 0.138,-1.05 0.658,-2.624 1.157,-3.497 l 0.906,-1.587 4.7,-0.003 4.7,-0.003 v 16.01 16.01 l -1.026,0.39 c -3.631,1.381 -3.774,0.921 -3.774,-12.165 0,-10.503 -0.24,-13.045 -1.231,-13.045 -0.167,0 -0.563,-0.099 -0.879,-0.221 -0.671,-0.257 -1.305,1.162 -1.662,3.718 -0.13,0.934 -0.594,2.284 -1.031,3 -0.437,0.717 -0.795,1.758 -0.796,2.314 0,0.556 -0.254,1.373 -0.564,1.815 -0.31,0.442 -0.788,1.967 -1.062,3.389 -0.274,1.422 -0.741,2.94 -1.037,3.374 -0.296,0.434 -0.538,1.052 -0.538,1.374 0,0.321 -0.342,1.316 -0.76,2.211 -0.418,0.894 -0.972,2.301 -1.231,3.126 -0.436,1.387 -0.585,1.5 -1.99,1.5 -3.774,0 -4.29,-0.384 -4.842,-3.6 -0.346,-2.021 -1.568,-5.588 -2.533,-7.4 -0.351,-0.66 -0.64,-1.582 -0.642,-2.048 -0.002,-0.948 -2.007,-7.219 -2.606,-8.152 -0.212,-0.33 -0.658,-1.41 -0.991,-2.4 -0.447,-1.332 -0.813,-1.8 -1.405,-1.8 -1.159,0 -1.336,1.84 -1.37,14.253 l -0.03,10.654 -0.9,0.241 c -1.993,0.534 -3.106,0.289 -3.51,-0.774 -0.436,-1.148 -0.554,-31.077 -0.123,-31.507 0.51,-0.511 9.209,-0.3 9.631,0.233 m 52.838,0.66 c 0.357,2.528 -0.341,2.84 -6.342,2.84 -6.962,0 -6.936,-0.02 -6.735,5.209 0.188,4.865 0.16,4.846 6.941,4.765 l 5.2,-0.063 v 1.712 1.711 l -5.335,0.033 c -6.812,0.042 -6.868,0.089 -6.859,5.777 0.009,5.489 0.247,5.656 8.077,5.656 4.788,0 5.517,0.251 5.517,1.898 0,1.817 -1.328,2.102 -9.776,2.102 h -8.146 l -0.439,-1.26 c -0.486,-1.394 -0.641,-30.805 -0.165,-31.281 0.151,-0.151 4.246,-0.226 9.1,-0.166 l 8.826,0.107 0.136,0.96 m 31.264,0.207 c 0,2.576 -0.094,2.633 -4.354,2.633 -6.121,0 -5.646,-1.157 -5.646,13.763 0,14.371 -0.104,15.04 -2.339,15.031 -2.78,-0.012 -2.649,0.652 -2.777,-14.065 -0.138,-15.901 0.266,-14.729 -5.082,-14.729 -3.927,0 -4.602,-0.409 -4.602,-2.785 0,-1.135 0.155,-1.15 12.9,-1.183 l 11.9,-0.032 v 1.367 m 18.786,0.233 c 0.385,0.77 1.063,2.12 1.507,3 0.444,0.88 0.932,2.23 1.085,3 0.262,1.317 1.011,3.148 2.619,6.4 0.381,0.77 0.822,2.12 0.981,3 0.159,0.88 0.522,1.87 0.805,2.2 0.284,0.33 0.744,1.32 1.023,2.2 0.279,0.88 0.752,1.955 1.051,2.389 0.299,0.434 0.543,1.137 0.543,1.561 0,0.425 0.461,1.747 1.024,2.937 1.544,3.265 1.272,4.282 -1.19,4.438 -2.421,0.153 -3.462,-0.776 -4.396,-3.922 -1.111,-3.742 -1.717,-4.002 -9.337,-4.003 h -6.5 l -1.187,1.9 c -0.653,1.045 -1.303,2.421 -1.445,3.057 -0.413,1.853 -2.05,3.016 -4.269,3.03 -2.088,0.014 -2.55,-0.874 -1.351,-2.598 0.302,-0.434 0.682,-1.419 0.845,-2.189 0.27,-1.275 0.855,-2.699 3.051,-7.426 0.415,-0.895 0.755,-2.029 0.755,-2.521 0,-0.492 0.358,-1.56 0.795,-2.374 1.195,-2.222 2.278,-4.91 2.612,-6.479 0.163,-0.77 0.634,-1.829 1.045,-2.354 0.411,-0.525 0.748,-1.299 0.748,-1.721 0,-0.421 0.351,-1.432 0.78,-2.246 0.429,-0.813 0.876,-1.801 0.994,-2.195 0.186,-0.625 0.627,-0.702 3.462,-0.6 l 3.249,0.116 0.701,1.4 m 33.915,-0.504 c 3.981,1.481 5.699,4.082 5.699,8.626 0,2.161 -0.165,3.117 -0.6,3.478 -0.33,0.274 -0.6,0.673 -0.6,0.887 0,2.391 -4.089,4.661 -8.972,4.982 -5.795,0.381 -5.828,0.422 -5.828,7.137 0,5.074 -0.046,5.381 -0.889,5.971 -1.146,0.803 -3.277,0.8 -4.082,-0.006 -0.843,-0.842 -0.966,-31.554 -0.129,-31.927 1.318,-0.586 13.322,0.078 15.401,0.852 m 26.201,0.404 c 0.556,0.825 1.129,2.22 1.274,3.1 0.244,1.488 0.897,3.128 2.626,6.6 0.384,0.77 0.831,2.03 0.994,2.8 0.308,1.454 0.536,1.993 2.33,5.5 0.591,1.155 1.074,2.541 1.074,3.079 0,0.538 0.45,1.825 1,2.859 0.55,1.035 1,2.192 1,2.573 0,0.38 0.27,0.915 0.6,1.189 0.345,0.286 0.6,1.158 0.6,2.049 v 1.551 h -1.974 c -3.001,0 -3.869,-0.472 -4.173,-2.269 -0.143,-0.842 -0.753,-2.431 -1.357,-3.531 l -1.098,-2 -6.827,-0.109 c -7.883,-0.126 -8.23,10e-4 -8.963,3.274 -0.666,2.971 -2.216,4.635 -4.318,4.635 -2.455,0 -2.947,-1.339 -1.508,-4.111 0.56,-1.08 1.018,-2.174 1.018,-2.432 0,-0.258 0.347,-1.117 0.772,-1.909 0.424,-0.792 0.897,-2.139 1.05,-2.994 0.154,-0.855 0.513,-1.824 0.798,-2.154 0.284,-0.33 0.649,-1.14 0.81,-1.8 0.161,-0.66 0.625,-1.827 1.031,-2.594 0.407,-0.767 0.739,-1.644 0.739,-1.95 0,-0.627 1.659,-4.695 2.828,-6.935 0.425,-0.814 0.772,-2.037 0.772,-2.718 0,-2.252 1.463,-3.203 4.927,-3.203 h 2.964 l 1.011,1.5 m 50.698,3.84 c 0,5.15 0.44,7.86 1.277,7.86 0.545,0 2.723,-1.309 2.723,-1.636 0,-0.145 0.945,-1.357 2.1,-2.695 1.155,-1.337 2.46,-2.892 2.9,-3.456 0.44,-0.564 1.682,-2.012 2.761,-3.219 l 1.96,-2.194 h 2.94 c 3.31,0 3.482,0.22 1.639,2.099 -0.715,0.729 -2.735,3.017 -4.49,5.085 -1.754,2.067 -3.612,4.222 -4.128,4.788 -0.516,0.565 -1.195,1.313 -1.51,1.662 -0.706,0.782 -0.751,3.012 -0.07,3.446 0.277,0.176 1.009,0.999 1.628,1.829 0.618,0.83 1.517,1.928 1.997,2.439 0.48,0.512 1.27,1.453 1.756,2.091 0.485,0.639 1.295,1.657 1.8,2.262 0.504,0.606 1.367,1.668 1.917,2.361 0.55,0.693 1.315,1.542 1.7,1.888 1.785,1.601 0.93,2.85 -1.953,2.85 -2.848,0 -3.24,-0.251 -6.034,-3.856 -4.279,-5.523 -5.979,-7.797 -6.847,-9.163 -0.146,-0.231 -0.854,-0.83 -1.573,-1.332 l -1.307,-0.913 -0.614,1.469 c -0.471,1.128 -0.594,2.793 -0.526,7.163 0.101,6.583 0.084,6.632 -2.28,6.632 -2.572,0 -2.566,0.04 -2.566,-16.793 0,-17.116 -0.183,-16.007 2.643,-16.007 h 2.157 v 5.34 m -86.5,-0.783 c -0.97,0.736 -1.052,9.853 -0.096,10.647 1.836,1.523 8.14,-0.352 9.027,-2.686 0.806,-2.12 0.451,-5.179 -0.755,-6.5 -1.738,-1.902 -6.479,-2.75 -8.176,-1.461 m 7.145,1.557 c 2.879,2.638 2.077,6.598 -1.672,8.257 -4.326,1.914 -5.278,1.148 -5.434,-4.371 -0.145,-5.185 -0.136,-5.2 3.09,-5.2 2.362,0 2.705,0.112 4.016,1.314 m -36.792,1.896 c -0.579,0.688 -1.053,1.575 -1.053,1.97 0,0.395 -0.342,1.506 -0.76,2.469 -0.418,0.963 -0.884,2.515 -1.035,3.449 -0.151,0.934 -0.439,1.799 -0.64,1.924 -0.843,0.521 -0.385,2.59 0.661,2.988 1.149,0.437 6.632,0.46 8.174,0.034 1.247,-0.344 1.575,-2.412 0.614,-3.878 -0.352,-0.538 -0.807,-1.74 -1.01,-2.672 -1.471,-6.742 -2.967,-8.641 -4.951,-6.284 m 60.014,-0.943 c -0.147,0.146 -0.267,0.66 -0.267,1.14 0,0.481 -0.45,1.72 -1,2.755 -0.55,1.034 -1,2.141 -1,2.461 0,0.319 -0.36,1.252 -0.8,2.073 -0.846,1.578 -1.041,3.904 -0.411,4.9 0.492,0.778 6.324,1.076 8.472,0.433 1.557,-0.467 2.303,-2.71 1.139,-3.429 -0.22,-0.136 -0.4,-0.553 -0.4,-0.927 0,-0.374 -0.424,-1.488 -0.943,-2.476 -0.518,-0.988 -1.056,-2.659 -1.194,-3.713 -0.4,-3.041 -2.18,-4.634 -3.596,-3.217 m 2.86,3.374 c 0.29,0.968 1.065,3.17 1.723,4.895 1.656,4.347 1.235,5.066 -2.959,5.059 -4.967,-0.01 -5.706,-0.689 -4.274,-3.926 0.43,-0.974 0.784,-1.973 0.785,-2.22 0.002,-0.247 0.29,-0.989 0.641,-1.649 0.351,-0.66 0.901,-2.069 1.223,-3.132 0.723,-2.392 1.981,-1.964 2.861,0.973 M 179.154,192.5 c 0.885,2.364 1.772,5.049 2.147,6.5 0.227,0.88 0.626,1.87 0.886,2.2 1.34,1.703 -0.437,2.803 -4.513,2.794 -3.586,-0.008 -4.43,-0.716 -3.653,-3.065 0.206,-0.621 0.908,-2.746 1.561,-4.723 1.424,-4.309 2.808,-5.746 3.572,-3.706 m 156.971,32.221 c -0.481,0.153 -1.651,0.853 -2.6,1.555 -6.045,4.472 -8.966,6.524 -9.285,6.524 -0.2,0 -0.954,0.45 -1.676,1 -0.721,0.55 -1.475,1 -1.675,1 -0.201,0 -0.691,0.36 -1.089,0.8 -0.398,0.44 -1.014,0.8 -1.369,0.8 -0.355,0 -1.308,0.45 -2.117,1 -0.809,0.55 -1.729,1 -2.044,1 -0.315,0 -0.772,0.241 -1.016,0.535 -0.245,0.295 -1.212,0.762 -2.149,1.04 -0.938,0.277 -1.975,0.723 -2.305,0.99 -0.33,0.267 -1.95,0.991 -3.6,1.607 -1.65,0.617 -3.903,1.551 -5.006,2.075 -1.103,0.524 -2.234,0.953 -2.514,0.953 -0.279,0 -0.907,0.25 -1.394,0.555 -0.487,0.305 -1.606,0.682 -2.486,0.836 -0.88,0.155 -2.355,0.625 -3.278,1.045 -0.923,0.42 -1.943,0.764 -2.267,0.764 -0.324,0 -1.377,0.338 -2.341,0.751 -0.964,0.413 -2.536,0.884 -3.493,1.045 -0.957,0.162 -2.35,0.549 -3.095,0.861 -0.746,0.312 -2.565,0.82 -4.041,1.13 -1.477,0.31 -3.669,0.845 -4.872,1.188 -1.203,0.344 -2.586,0.625 -3.074,0.625 -0.488,0 -1.394,0.211 -2.013,0.469 -1.188,0.496 -8.415,1.892 -15.126,2.923 -2.2,0.338 -4.54,0.784 -5.2,0.991 -0.66,0.207 -3.36,0.579 -6,0.826 -2.64,0.246 -5.562,0.616 -6.494,0.82 -0.931,0.204 -4.351,0.552 -7.6,0.772 -3.248,0.22 -8.246,0.705 -11.106,1.078 -6.571,0.856 -49.3,0.997 -56,0.183 -2.2,-0.267 -6.43,-0.665 -9.4,-0.884 -2.97,-0.22 -8.19,-0.74 -11.6,-1.157 -3.41,-0.416 -7.55,-0.872 -9.2,-1.014 -1.65,-0.141 -4.08,-0.533 -5.4,-0.871 -1.32,-0.338 -3.66,-0.77 -5.2,-0.959 -4.06,-0.499 -13.127,-2.136 -13.632,-2.462 -0.237,-0.153 -1.644,-0.472 -3.127,-0.708 -1.482,-0.237 -5.068,-1.063 -7.968,-1.835 -2.9,-0.773 -6.263,-1.656 -7.473,-1.962 -4.535,-1.15 -9.882,-2.808 -16.4,-5.088 -6.238,-2.182 -7.381,-2.623 -10.55,-4.077 C 56.118,240.65 54.476,240 54.203,240 c -0.274,0 -2.085,-0.81 -4.025,-1.8 -1.94,-0.99 -3.78,-1.8 -4.09,-1.8 -0.309,0 -0.997,-0.343 -1.53,-0.761 -0.587,-0.463 -1.303,-0.674 -1.822,-0.538 -0.946,0.247 -0.023,1.299 1.14,1.299 0.288,0 0.524,0.242 0.524,0.537 0,0.295 0.63,0.876 1.4,1.291 0.77,0.415 1.4,0.873 1.4,1.02 0,0.146 0.675,0.56 1.5,0.92 0.825,0.359 2.31,1.169 3.3,1.799 1.846,1.173 9.761,5.233 10.203,5.233 0.238,0 3.012,1.218 6.441,2.828 0.904,0.425 1.946,0.772 2.316,0.772 0.369,0 1.378,0.36 2.24,0.8 0.862,0.44 1.8,0.802 2.084,0.804 0.284,0.002 1.416,0.446 2.516,0.987 1.1,0.541 2.411,0.99 2.913,0.996 0.502,0.007 1.492,0.255 2.2,0.55 0.708,0.295 2.277,0.759 3.487,1.031 1.21,0.272 2.74,0.735 3.4,1.031 1.285,0.574 7.118,2.05 10.395,2.63 1.098,0.194 2.448,0.536 3,0.76 0.952,0.386 5.793,1.311 13.805,2.638 1.98,0.328 4.192,0.786 4.916,1.017 0.724,0.231 3.064,0.584 5.2,0.785 2.136,0.202 5.414,0.629 7.284,0.951 1.87,0.322 4.93,0.696 6.8,0.831 1.87,0.136 6.01,0.579 9.2,0.986 18.396,2.345 79.974,2.345 96.4,0 2.97,-0.424 7.38,-0.941 9.8,-1.149 6.186,-0.531 15.986,-1.92 18.626,-2.641 1.225,-0.334 2.758,-0.607 3.408,-0.607 0.65,0 2.438,-0.339 3.974,-0.754 1.536,-0.415 3.782,-0.871 4.992,-1.015 1.21,-0.143 3.075,-0.545 4.144,-0.892 1.068,-0.348 2.958,-0.871 4.2,-1.163 7.293,-1.714 8.761,-2.096 9.471,-2.463 0.432,-0.224 1.731,-0.629 2.886,-0.9 1.156,-0.272 2.194,-0.643 2.307,-0.826 0.113,-0.183 1.233,-0.546 2.488,-0.807 1.255,-0.26 2.914,-0.813 3.687,-1.227 0.773,-0.414 1.628,-0.753 1.901,-0.753 0.273,0 1.086,-0.359 1.806,-0.799 0.721,-0.439 1.634,-0.799 2.031,-0.8 0.396,0 1.386,-0.354 2.2,-0.786 0.813,-0.432 2.739,-1.335 4.279,-2.009 1.54,-0.673 3.07,-1.385 3.4,-1.583 0.33,-0.198 1.77,-0.953 3.2,-1.677 1.43,-0.724 3.746,-2.089 5.147,-3.032 1.4,-0.943 2.75,-1.714 3,-1.715 0.249,0 1.49,-0.945 2.757,-2.1 l 2.304,-2.099 -0.266,-4.908 c -0.353,-6.536 -0.089,-6.274 -6.41,-6.371 -2.822,-0.044 -5.526,0.046 -6.007,0.2 m 11.343,1.411 c 0.183,0.183 0.393,2.403 0.467,4.933 l 0.135,4.601 -1.335,1.168 c -0.734,0.643 -1.72,1.528 -2.191,1.967 -0.471,0.44 -1.101,0.799 -1.4,0.8 -0.299,0 -1.534,0.686 -2.744,1.524 -1.21,0.838 -3.55,2.209 -5.2,3.047 -1.65,0.838 -3.09,1.663 -3.2,1.834 -0.11,0.171 -0.92,0.508 -1.8,0.749 -0.88,0.24 -2.14,0.798 -2.8,1.239 -0.66,0.44 -1.577,0.802 -2.038,0.803 -0.461,0.002 -1.164,0.363 -1.562,0.803 -0.398,0.44 -1.157,0.8 -1.687,0.8 -0.85,0 -2.074,0.472 -6.713,2.59 -0.66,0.301 -2.19,0.768 -3.4,1.036 -1.21,0.268 -2.555,0.732 -2.989,1.031 -0.434,0.299 -1.244,0.547 -1.8,0.552 -0.556,0.005 -1.798,0.366 -2.759,0.802 -0.962,0.436 -2.672,0.955 -3.8,1.152 -2.995,0.524 -9.574,2.26 -10.555,2.785 -0.464,0.249 -1.546,0.452 -2.404,0.452 -1.875,0 -6.124,0.789 -6.719,1.247 -0.235,0.181 -2.07,0.515 -4.078,0.742 -2.008,0.228 -4.156,0.609 -4.774,0.848 -0.617,0.239 -3.822,0.691 -7.122,1.005 -3.3,0.313 -6.536,0.752 -7.192,0.975 -0.655,0.223 -3.847,0.584 -7.093,0.802 -3.246,0.218 -6.362,0.571 -6.924,0.784 -4.118,1.566 -83.732,1.591 -89.719,0.029 -0.81,-0.212 -4.243,-0.584 -7.629,-0.827 -3.386,-0.244 -7.256,-0.69 -8.6,-0.991 -1.344,-0.302 -4.333,-0.669 -6.643,-0.815 -2.31,-0.147 -5.58,-0.612 -7.267,-1.033 -1.686,-0.421 -3.778,-0.766 -4.648,-0.766 -0.869,0 -2.711,-0.361 -4.092,-0.802 -1.381,-0.441 -4.059,-0.916 -5.952,-1.056 -1.893,-0.139 -3.936,-0.503 -4.541,-0.808 -0.605,-0.305 -2.045,-0.725 -3.2,-0.934 -1.155,-0.208 -3,-0.641 -4.1,-0.962 -1.1,-0.32 -2.9,-0.757 -4,-0.97 -1.1,-0.213 -2.9,-0.695 -4,-1.07 -1.1,-0.375 -2.54,-0.865 -3.2,-1.088 -0.66,-0.224 -2.46,-0.713 -4,-1.088 -1.54,-0.375 -3.469,-0.983 -4.287,-1.352 -0.818,-0.368 -1.674,-0.67 -1.902,-0.67 -0.227,0 -1.086,-0.36 -1.907,-0.8 -0.82,-0.44 -1.966,-0.8 -2.544,-0.8 -0.579,0 -1.51,-0.36 -2.069,-0.8 -0.56,-0.44 -1.26,-0.8 -1.557,-0.8 -0.297,0 -1.386,-0.45 -2.419,-1 -1.033,-0.55 -2.141,-1 -2.463,-1 -0.321,0 -1.725,-0.63 -3.118,-1.4 -1.394,-0.77 -2.804,-1.503 -3.134,-1.629 -4.497,-1.718 -6.293,-3.371 -3.661,-3.371 0.964,0 1.883,0.298 2.461,0.8 0.507,0.44 1.123,0.8 1.367,0.8 0.245,0 1.093,0.347 1.885,0.772 0.792,0.424 2.139,0.894 2.994,1.045 0.855,0.15 2.004,0.561 2.554,0.914 1.37,0.879 4.592,2.051 7,2.547 1.1,0.226 2.738,0.75 3.64,1.165 0.902,0.414 2.252,0.869 3,1.011 0.748,0.142 1.547,0.404 1.775,0.581 0.229,0.177 1.669,0.522 3.2,0.766 1.532,0.243 3.162,0.689 3.622,0.989 0.461,0.3 1.84,0.732 3.065,0.958 1.225,0.227 2.829,0.663 3.565,0.971 0.735,0.307 2.686,0.687 4.335,0.844 1.649,0.157 3.718,0.616 4.598,1.02 0.88,0.403 2.841,0.85 4.358,0.992 1.517,0.143 3.058,0.42 3.425,0.616 0.366,0.196 2.635,0.561 5.042,0.81 2.406,0.25 4.825,0.651 5.375,0.893 1.429,0.628 15.287,2.299 25.6,3.087 2.75,0.21 5.9,0.587 7,0.836 5.49,1.247 61.451,0.864 65.864,-0.45 0.735,-0.219 4.414,-0.544 8.177,-0.722 3.763,-0.179 7.005,-0.426 7.206,-0.55 0.201,-0.124 2.882,-0.521 5.959,-0.881 3.077,-0.36 6.134,-0.839 6.794,-1.064 0.66,-0.225 3.45,-0.762 6.2,-1.193 2.75,-0.431 6.554,-1.03 8.454,-1.331 1.9,-0.301 3.88,-0.82 4.4,-1.154 0.52,-0.333 2.206,-0.734 3.746,-0.891 1.54,-0.156 3.662,-0.621 4.715,-1.033 1.053,-0.411 2.406,-0.748 3.006,-0.748 0.6,0 1.718,-0.334 2.485,-0.743 0.767,-0.409 2.539,-0.943 3.938,-1.188 1.4,-0.244 2.75,-0.609 3,-0.811 0.251,-0.201 1.086,-0.496 1.856,-0.655 0.77,-0.159 1.94,-0.607 2.6,-0.996 0.66,-0.388 1.926,-0.796 2.813,-0.907 0.887,-0.11 2.452,-0.583 3.478,-1.05 1.026,-0.468 2.086,-0.85 2.356,-0.85 0.269,0 0.801,-0.282 1.181,-0.626 0.38,-0.344 1.636,-0.874 2.791,-1.179 1.155,-0.305 2.289,-0.743 2.52,-0.974 0.232,-0.232 0.745,-0.421 1.141,-0.421 0.396,0 1.079,-0.359 1.517,-0.797 0.439,-0.439 1.532,-0.963 2.429,-1.164 0.897,-0.202 1.948,-0.653 2.334,-1.003 0.387,-0.35 0.879,-0.636 1.094,-0.636 0.215,0 1.001,-0.45 1.746,-1 0.745,-0.55 1.635,-1.001 1.978,-1.002 0.342,-0.002 1.792,-0.811 3.222,-1.798 1.43,-0.987 2.808,-1.796 3.063,-1.798 0.255,-0.001 1.458,-0.812 2.673,-1.802 1.216,-0.99 2.339,-1.8 2.496,-1.8 0.157,0 1.099,-0.675 2.094,-1.5 3.049,-2.53 2.98,-2.512 9.142,-2.402 3.117,0.056 5.817,0.252 6,0.434 m -300.045,11.43 c -0.123,0.2 -0.584,0.269 -1.023,0.154 -1.101,-0.288 -1.002,-0.516 0.224,-0.516 0.563,0 0.922,0.163 0.799,0.362 m 2.344,1.081 c 0.965,0.37 0.754,0.957 -0.343,0.957 -1.004,0 -1.6,-0.491 -1.146,-0.944 0.319,-0.32 0.682,-0.323 1.489,-0.013"
       stroke="none"
       fill="#8288e0"
       fill-rule="evenodd" />
  </g>
</svg>
